<?xml version="1.0" standalone="no"?>
<!DOCTYPE svg PUBLIC "-//W3C//DTD SVG 20010904//EN"
 "http://www.w3.org/TR/2001/REC-SVG-20010904/DTD/svg10.dtd">
<svg version="1.0" xmlns="http://www.w3.org/2000/svg"
 width="16.000000pt" height="16.000000pt" viewBox="0 0 16.000000 16.000000"
 preserveAspectRatio="xMidYMid meet">
<metadata>
Created by potrace 1.11, written by Peter Selinger 2001-2013
</metadata>
<g transform="translate(0.000000,16.000000) scale(0.001563,-0.001563)"
fill="#000000" stroke="none">
<path d="M5056 8138 c10 -13 21 -25 24 -28 7 -6 310 -369 330 -394 8 -10 22
-26 30 -35 8 -9 46 -55 85 -101 38 -47 72 -87 75 -90 3 -3 25 -30 50 -60 25
-30 50 -60 56 -66 16 -18 379 -450 434 -518 8 -10 20 -23 25 -30 12 -14 55
-64 115 -136 25 -30 55 -65 68 -78 12 -12 22 -26 22 -30 0 -4 20 -28 43 -53
23 -26 51 -57 62 -70 77 -94 220 -265 225 -269 3 -3 25 -30 50 -60 25 -30 47
-57 50 -60 3 -3 39 -45 80 -95 73 -88 184 -220 219 -260 9 -11 64 -76 121
-145 57 -69 108 -129 115 -135 6 -5 25 -28 41 -51 l29 -40 0 -1627 -1 -1627
236 0 235 0 0 1633 0 1632 25 29 c14 16 30 34 35 40 6 6 55 65 110 131 55 66
102 122 105 125 3 3 43 50 89 105 45 55 100 120 121 145 21 25 53 63 72 85 18
22 35 42 38 45 3 3 25 30 49 60 25 30 49 60 55 65 6 6 29 33 51 60 21 28 42
52 45 55 5 4 61 71 125 148 11 14 25 30 30 36 6 6 33 38 61 71 70 85 96 116
117 137 9 10 17 21 17 24 0 3 6 11 13 18 6 7 30 34 52 60 43 53 65 77 98 116
12 14 40 47 62 75 41 50 87 103 118 136 9 11 17 21 17 24 0 3 10 16 23 29 12
13 36 40 52 60 48 59 64 79 88 106 12 14 45 52 72 85 28 33 77 92 110 130 33
39 75 90 93 112 32 40 41 51 95 113 12 14 67 79 122 145 55 66 102 122 105
125 3 3 27 31 53 63 l49 57 -284 0 c-156 0 -288 -4 -293 -8 -6 -4 -30 -32 -55
-62 -25 -30 -53 -64 -63 -75 -10 -11 -28 -33 -40 -48 -12 -16 -29 -36 -38 -45
-9 -10 -42 -48 -74 -87 -32 -38 -64 -75 -69 -82 -6 -7 -16 -18 -21 -25 -16
-20 -109 -132 -120 -144 -5 -6 -28 -32 -50 -59 -22 -27 -58 -70 -80 -95 -22
-26 -56 -66 -75 -90 -19 -23 -51 -61 -70 -83 -19 -22 -43 -49 -52 -61 -10 -12
-23 -27 -29 -34 -15 -18 -111 -134 -129 -156 -8 -10 -20 -24 -27 -31 -7 -7
-49 -56 -93 -110 -44 -54 -86 -103 -93 -110 -7 -7 -23 -27 -37 -45 -14 -18
-30 -37 -36 -44 -5 -6 -59 -69 -119 -141 -60 -71 -112 -132 -115 -135 -3 -3
-24 -27 -45 -55 -22 -27 -47 -57 -55 -65 -8 -8 -41 -46 -72 -85 -31 -38 -69
-83 -83 -100 -37 -43 -54 -63 -105 -125 -25 -30 -57 -68 -72 -85 -14 -16 -36
-41 -47 -55 -12 -14 -30 -35 -40 -47 l-19 -22 -38 47 c-22 26 -49 58 -61 72
-19 22 -250 295 -367 434 -22 27 -46 54 -51 60 -6 6 -42 49 -80 96 -39 47 -82
98 -97 115 -26 29 -64 73 -143 169 -22 27 -48 58 -59 70 -10 11 -35 41 -55 66
-20 24 -43 51 -51 60 -8 9 -33 37 -55 64 -22 27 -47 56 -55 66 -8 10 -33 39
-55 65 -22 26 -44 53 -50 59 -5 6 -44 52 -85 101 -41 50 -79 95 -85 101 -11
12 -68 80 -163 193 -35 42 -83 99 -107 126 -39 46 -69 81 -123 145 -11 14 -31
36 -42 50 -12 14 -36 42 -53 63 -42 51 -53 64 -111 131 l-48 56 -286 0 -285 0
19 -22z"/>
<path d="M38 8112 l-38 -3 0 -732 0 -733 1101 1 c1093 0 1101 0 1108 -20 4
-11 6 -1038 5 -2282 l-1 -2263 909 0 908 0 2 2282 3 2282 812 1 c446 0 814 3
818 6 3 4 -4 18 -17 31 -13 14 -32 35 -42 49 -11 13 -40 49 -66 79 -26 30 -54
64 -63 75 -9 11 -55 67 -103 125 -48 58 -103 125 -123 148 -20 24 -40 49 -46
56 -5 6 -32 38 -60 71 -27 33 -52 62 -55 65 -3 3 -23 28 -45 55 -22 28 -49 61
-61 75 -12 14 -115 138 -229 275 -114 138 -223 268 -242 291 -19 22 -38 46
-42 53 -7 10 -457 13 -2202 14 -1207 1 -2211 1 -2231 -1z"/>
</g>
</svg>
