<?xml version="1.0" encoding="UTF-8"?>
<svg width="211px" height="107px" viewBox="0 0 211 107" version="1.1" xmlns="http://www.w3.org/2000/svg" xmlns:xlink="http://www.w3.org/1999/xlink">
    <!-- Generator: Sketch 52.2 (67145) - http://www.bohemiancoding.com/sketch -->
    <title>Happy</title>
    <desc>Created with Sketch.</desc>
    <defs>
        <path d="M45.2666666,0.92 L51.1466666,0.92 L51.1466666,10.96 L60.1466666,10.96 L60.1466666,0.92 L66.0666666,0.92 L66.0666666,27 L60.1466666,27 L60.1466666,16.12 L51.1466666,16.12 L51.1466666,27 L45.2666666,27 L45.2666666,0.92 Z M84.5999999,16.2 L83.9999999,13.8 C83.6266647,12.4933268 83.2666683,11.106674 82.9199999,9.64 C82.5733315,8.173326 82.2266683,6.7600068 81.8799999,5.4 L81.7199999,5.4 C81.3999983,6.7866736 81.0733349,8.2066594 80.7399999,9.66 C80.4066649,11.1133406 80.0533351,12.4933268 79.6799999,13.8 L79.0399999,16.2 L84.5999999,16.2 Z M85.7999999,20.8 L77.8399999,20.8 L76.2399999,27 L70.2399999,27 L78.3999999,0.92 L85.4799999,0.92 L93.6399999,27 L87.3999999,27 L85.7999999,20.8 Z M97.8133333,0.92 L107.333333,0.92 C108.746674,0.92 110.073327,1.0599986 111.313333,1.34 C112.55334,1.6200014 113.633329,2.0866634 114.553333,2.74 C115.473338,3.3933366 116.199997,4.2599946 116.733333,5.34 C117.266669,6.4200054 117.533333,7.7466588 117.533333,9.32 C117.533333,10.8400076 117.260003,12.1599944 116.713333,13.28 C116.166664,14.4000056 115.426671,15.3199964 114.493333,16.04 C113.559995,16.7600036 112.480006,17.2933316 111.253333,17.64 C110.026661,17.9866684 108.720007,18.16 107.333333,18.16 L103.693333,18.16 L103.693333,27 L97.8133333,27 L97.8133333,0.92 Z M106.973333,13.48 C110.173349,13.48 111.773333,12.0933472 111.773333,9.32 C111.773333,7.9599932 111.366671,7.0000028 110.553333,6.44 C109.739996,5.8799972 108.546675,5.6 106.973333,5.6 L103.693333,5.6 L103.693333,13.48 L106.973333,13.48 Z M123.386667,0.92 L132.906667,0.92 C134.320007,0.92 135.64666,1.0599986 136.886667,1.34 C138.126673,1.6200014 139.206662,2.0866634 140.126667,2.74 C141.046671,3.3933366 141.773331,4.2599946 142.306667,5.34 C142.840003,6.4200054 143.106667,7.7466588 143.106667,9.32 C143.106667,10.8400076 142.833336,12.1599944 142.286667,13.28 C141.739997,14.4000056 141.000005,15.3199964 140.066667,16.04 C139.133329,16.7600036 138.053339,17.2933316 136.826667,17.64 C135.599994,17.9866684 134.29334,18.16 132.906667,18.16 L129.266667,18.16 L129.266667,27 L123.386667,27 L123.386667,0.92 Z M132.546667,13.48 C135.746683,13.48 137.346667,12.0933472 137.346667,9.32 C137.346667,7.9599932 136.940004,7.0000028 136.126667,6.44 C135.313329,5.8799972 134.120008,5.6 132.546667,5.6 L129.266667,5.6 L129.266667,13.48 L132.546667,13.48 Z M153.04,17.72 L145.16,0.92 L151.48,0.92 L153.8,6.92 C154.173335,7.9066716 154.526665,8.8599954 154.86,9.78 C155.193335,10.7000046 155.546665,11.6666616 155.92,12.68 L156.08,12.68 C156.453335,11.6666616 156.819998,10.7000046 157.18,9.78 C157.540002,8.8599954 157.906665,7.9066716 158.28,6.92 L160.64,0.92 L166.8,0.92 L158.92,17.72 L158.92,27 L153.04,27 L153.04,17.72 Z M14.3666665,44.92 L20.2466665,44.92 L20.2466665,54.96 L29.2466665,54.96 L29.2466665,44.92 L35.1666665,44.92 L35.1666665,71 L29.2466665,71 L29.2466665,60.12 L20.2466665,60.12 L20.2466665,71 L14.3666665,71 L14.3666665,44.92 Z M53.2599999,71.48 C51.4999911,71.48 49.8933405,71.1666698 48.4399999,70.54 C46.9866593,69.9133302 45.7400051,69.0133392 44.6999999,67.84 C43.6599947,66.6666608 42.8533361,65.2400084 42.2799999,63.56 C41.7066637,61.8799916 41.4199999,59.973344 41.4199999,57.84 C41.4199999,55.706656 41.7066637,53.806675 42.2799999,52.14 C42.8533361,50.473325 43.6599947,49.073339 44.6999999,47.94 C45.7400051,46.806661 46.9866593,45.940003 48.4399999,45.34 C49.8933405,44.739997 51.4999911,44.44 53.2599999,44.44 C55.0200087,44.44 56.6266593,44.739997 58.0799999,45.34 C59.5333405,45.940003 60.7799947,46.8133276 61.8199999,47.96 C62.8600051,49.1066724 63.6666637,50.513325 64.2399999,52.18 C64.8133361,53.846675 65.0999999,55.7333228 65.0999999,57.84 C65.0999999,59.973344 64.8133361,61.8799916 64.2399999,63.56 C63.6666637,65.2400084 62.8600051,66.6666608 61.8199999,67.84 C60.7799947,69.0133392 59.5333405,69.9133302 58.0799999,70.54 C56.6266593,71.1666698 55.0200087,71.48 53.2599999,71.48 Z M53.2599999,66.4 C55.0466755,66.4 56.4599947,65.633341 57.4999999,64.1 C58.5400051,62.566659 59.0599999,60.4800132 59.0599999,57.84 C59.0599999,55.2266536 58.5400051,53.186674 57.4999999,51.72 C56.4599947,50.253326 55.0466755,49.52 53.2599999,49.52 C51.4733243,49.52 50.0600051,50.253326 49.0199999,51.72 C47.9799947,53.186674 47.4599999,55.2266536 47.4599999,57.84 C47.4599999,60.4800132 47.9799947,62.566659 49.0199999,64.1 C50.0600051,65.633341 51.4733243,66.4 53.2599999,66.4 Z M71.3533333,44.92 L77.2333333,44.92 L77.2333333,66.04 L87.5533333,66.04 L87.5533333,71 L71.3533333,71 L71.3533333,44.92 Z M93.4066666,44.92 L99.2866666,44.92 L99.2866666,71 L93.4066666,71 L93.4066666,44.92 Z M106.78,44.92 L114.14,44.92 C116.14001,44.92 117.939992,45.1733308 119.54,45.68 C121.140008,46.1866692 122.513328,46.9666614 123.66,48.02 C124.806672,49.0733386 125.686664,50.4133252 126.3,52.04 C126.913336,53.6666748 127.22,55.5999888 127.22,57.84 C127.22,60.0800112 126.913336,62.0266584 126.3,63.68 C125.686664,65.3333416 124.820006,66.6999946 123.7,67.78 C122.579994,68.8600054 121.240008,69.666664 119.68,70.2 C118.119992,70.733336 116.38001,71 114.46,71 L106.78,71 L106.78,44.92 Z M113.78,66.24 C114.900006,66.24 115.913329,66.0933348 116.82,65.8 C117.726671,65.5066652 118.499997,65.0333366 119.14,64.38 C119.780003,63.7266634 120.279998,62.866672 120.64,61.8 C121.000002,60.733328 121.18,59.4133412 121.18,57.84 C121.18,56.2933256 121.000002,54.9933386 120.64,53.94 C120.279998,52.8866614 119.780003,52.0466698 119.14,51.42 C118.499997,50.7933302 117.726671,50.346668 116.82,50.08 C115.913329,49.813332 114.900006,49.68 113.78,49.68 L112.66,49.68 L112.66,66.24 L113.78,66.24 Z M144.153333,60.2 L143.553333,57.8 C143.179998,56.4933268 142.820002,55.106674 142.473333,53.64 C142.126665,52.173326 141.780002,50.7600068 141.433333,49.4 L141.273333,49.4 C140.953332,50.7866736 140.626668,52.2066594 140.293333,53.66 C139.959998,55.1133406 139.606669,56.4933268 139.233333,57.8 L138.593333,60.2 L144.153333,60.2 Z M145.353333,64.8 L137.393333,64.8 L135.793333,71 L129.793333,71 L137.953333,44.92 L145.033333,44.92 L153.193333,71 L146.953333,71 L145.353333,64.8 Z M161.126667,61.72 L153.246667,44.92 L159.566667,44.92 L161.886667,50.92 C162.260002,51.9066716 162.613332,52.8599954 162.946667,53.78 C163.280002,54.7000046 163.633332,55.6666616 164.006667,56.68 L164.166667,56.68 C164.540002,55.6666616 164.906665,54.7000046 165.266667,53.78 C165.626669,52.8599954 165.993332,51.9066716 166.366667,50.92 L168.726667,44.92 L174.886667,44.92 L167.006667,61.72 L167.006667,71 L161.126667,71 L161.126667,61.72 Z M179.9,63.68 C180.833338,64.480004 181.866661,65.1333308 183,65.64 C184.133339,66.1466692 185.246661,66.4 186.34,66.4 C187.566673,66.4 188.479997,66.1733356 189.08,65.72 C189.680003,65.2666644 189.98,64.6533372 189.98,63.88 C189.98,63.479998 189.893334,63.1333348 189.72,62.84 C189.546666,62.5466652 189.293335,62.2866678 188.96,62.06 C188.626665,61.8333322 188.226669,61.620001 187.76,61.42 L186.22,60.76 L182.82,59.32 C182.15333,59.053332 181.50667,58.7066688 180.88,58.28 C180.25333,57.8533312 179.693336,57.3533362 179.2,56.78 C178.706664,56.2066638 178.313335,55.5400038 178.02,54.78 C177.726665,54.0199962 177.58,53.1600048 177.58,52.2 C177.58,51.133328 177.806665,50.1266714 178.26,49.18 C178.713336,48.2333286 179.353329,47.4066702 180.18,46.7 C181.006671,45.9933298 181.986661,45.440002 183.12,45.04 C184.253339,44.639998 185.499993,44.44 186.86,44.44 C188.380008,44.44 189.879993,44.7333304 191.36,45.32 C192.840008,45.9066696 194.139995,46.7599944 195.26,47.88 L192.26,51.6 C191.406663,50.93333 190.553338,50.4200018 189.7,50.06 C188.846663,49.6999982 187.900005,49.52 186.86,49.52 C185.846662,49.52 185.040003,49.7266646 184.44,50.14 C183.839997,50.5533354 183.54,51.1333296 183.54,51.88 C183.54,52.280002 183.639999,52.6199986 183.84,52.9 C184.040001,53.1800014 184.319998,53.4333322 184.68,53.66 C185.040002,53.8866678 185.459998,54.099999 185.94,54.3 C186.420003,54.500001 186.939997,54.7199988 187.5,54.96 L190.86,56.32 C192.460008,56.9600032 193.719996,57.8399944 194.64,58.96 C195.560005,60.0800056 196.02,61.5599908 196.02,63.4 C196.02,64.4933388 195.800002,65.5266618 195.36,66.5 C194.919998,67.4733382 194.280004,68.326663 193.44,69.06 C192.599996,69.793337 191.566673,70.3799978 190.34,70.82 C189.113327,71.2600022 187.726675,71.48 186.18,71.48 C184.473325,71.48 182.773342,71.1666698 181.08,70.54 C179.386658,69.9133302 177.87334,68.9733396 176.54,67.72 L179.9,63.68 Z" id="path-1"></path>
        <filter x="-1.4%" y="-3.5%" width="103.9%" height="109.9%" filterUnits="objectBoundingBox" id="filter-2">
            <feOffset dx="1" dy="1" in="SourceAlpha" result="shadowOffsetOuter1"></feOffset>
            <feGaussianBlur stdDeviation="1" in="shadowOffsetOuter1" result="shadowBlurOuter1"></feGaussianBlur>
            <feColorMatrix values="0 0 0 0 0.816203773   0 0 0 0 0.00751322834   0 0 0 0 0.106696017  0 0 0 1 0" type="matrix" in="shadowBlurOuter1"></feColorMatrix>
        </filter>
        <path d="M42.1283008,7.31689453 L38.4075977,7.31689453 L38.4075977,15 L35.3533984,15 L35.3533984,7.31689453 L31.6326953,7.31689453 L31.6326953,4.84863281 L42.1283008,4.84863281 L42.1283008,7.31689453 Z M53.7445117,15 L50.4559375,15 L49.6575977,13.1982422 C49.3646274,12.5390592 49.1009582,12.0568863 48.866582,11.751709 C48.6322059,11.4465317 48.4039367,11.2512211 48.1817676,11.1657715 C47.9595985,11.0803218 47.6727361,11.0375977 47.3211719,11.0375977 L46.9769336,11.0375977 L46.9769336,15 L43.9154102,15 L43.9154102,4.84863281 L49.1229297,4.84863281 C49.9627776,4.84863281 50.6512473,5.01952954 51.1883594,5.36132812 C51.7254714,5.70312671 52.1124305,6.11816162 52.349248,6.60644531 C52.5860656,7.094729 52.7044727,7.55859155 52.7044727,7.99804688 C52.7044727,8.51074475 52.6055967,8.94409003 52.4078418,9.2980957 C52.2100869,9.65210138 52.0013488,9.90966716 51.7816211,10.0708008 C51.5618934,10.2319344 51.3153139,10.3857415 51.041875,10.5322266 C51.3690251,10.7226572 51.6387978,10.948485 51.8512012,11.2097168 C52.0636046,11.4709486 52.3529083,11.9995077 52.7191211,12.7954102 L53.7445117,15 Z M49.5843555,8.05664062 C49.5843555,7.58788828 49.4305484,7.26074312 49.1229297,7.07519531 C48.815311,6.88964751 48.3148277,6.796875 47.6214648,6.796875 L46.9769336,6.796875 L46.9769336,9.24316406 L47.6361133,9.24316406 C48.3831873,9.24316406 48.8946568,9.16137777 49.1705371,8.99780273 C49.4464174,8.8342277 49.5843555,8.52051013 49.5843555,8.05664062 Z M66.2835742,15 L63.1488086,15 L62.3211719,12.9418945 L57.9119922,12.9418945 L57.069707,15 L53.9349414,15 L58.4246875,4.84863281 L61.8084766,4.84863281 L66.2835742,15 Z M61.6180469,11.1767578 L60.1312305,7.47070312 L58.6297656,11.1767578 L61.6180469,11.1767578 Z M76.5081836,14.2382812 C76.0882596,14.4580089 75.6585764,14.6337884 75.2191211,14.765625 C74.7796658,14.8974616 74.336555,14.9914548 73.8897754,15.0476074 C73.4429958,15.10376 72.980354,15.1318359 72.5018359,15.1318359 C71.6180425,15.1318359 70.8258141,15.0097668 70.125127,14.765625 C69.4244399,14.5214832 68.8165358,14.1613793 68.3013965,13.6853027 C67.7862572,13.2092261 67.4005189,12.6525911 67.1441699,12.0153809 C66.887821,11.3781706 66.7596484,10.6787147 66.7596484,9.91699219 C66.7596484,9.04296438 66.9110141,8.27759117 67.21375,7.62084961 C67.5164859,6.96410804 67.9400656,6.4184592 68.484502,5.98388672 C69.0289383,5.54931423 69.6490493,5.22827252 70.3448535,5.02075195 C71.0406578,4.81323138 71.774293,4.70947266 72.5457813,4.70947266 C73.6981308,4.70947266 75.00427,4.96581775 76.4642383,5.47851562 L76.4642383,8.17382812 C75.9613061,7.86132656 75.4644849,7.6013194 74.9737598,7.39379883 C74.4830347,7.18627826 73.9056479,7.08251953 73.241582,7.08251953 C72.6507588,7.08251953 72.0990065,7.19970586 71.5863086,7.43408203 C71.0736107,7.6684582 70.6610172,8.00292751 70.3485156,8.4375 C70.0360141,8.87207249 69.8797656,9.37987991 69.8797656,9.9609375 C69.8797656,10.4736354 70.016483,10.9436014 70.2899219,11.3708496 C70.5633607,11.7980978 70.9429956,12.1374499 71.4288379,12.388916 C71.9146802,12.6403821 72.4627704,12.7661133 73.073125,12.7661133 C73.5662915,12.7661133 74.0325955,12.7062994 74.4720508,12.5866699 C74.9115061,12.4670404 75.2813755,12.3339851 75.5816699,12.1875 C75.8819644,12.0410149 76.1907992,11.8676768 76.5081836,11.6674805 L76.5081836,14.2382812 Z M89.245,15 L85.5096484,15 L81.6278125,10.246582 L81.6278125,15 L78.5662891,15 L78.5662891,4.84863281 L81.6278125,4.84863281 L81.6278125,9.38964844 L85.3045703,4.84863281 L88.6297656,4.84863281 L84.8504688,9.60205078 L89.245,15 Z M98.0340625,4.76806641 L98.8250781,4.76806641 L98.8250781,10.3491211 C98.8250781,11.877449 98.4271329,13.0566365 97.6312305,13.8867188 C96.8353281,14.716801 95.8050649,15.1318359 94.5404102,15.1318359 C93.2806382,15.1318359 92.2528165,14.7216838 91.4569141,13.9013672 C90.6610116,13.0810506 90.2630664,11.9580149 90.2630664,10.5322266 L90.2630664,4.76806641 L91.0614063,4.76806641 L91.0614063,10.5029297 C91.0614063,11.7236389 91.3848893,12.6782192 92.0318652,13.3666992 C92.6788411,14.0551792 93.5150144,14.3994141 94.5404102,14.3994141 C95.5755716,14.3994141 96.4166276,14.0515172 97.0636035,13.3557129 C97.7105794,12.6599086 98.0340625,11.6723697 98.0340625,10.3930664 L98.0340625,4.76806641 Z M101.740117,4.76806641 L101.740117,15 L100.949102,15 L100.949102,4.76806641 L101.740117,4.76806641 Z M111.430059,4.76806641 L111.430059,5.42724609 L107.592168,5.42724609 L107.592168,15 L106.793828,15 L106.793828,5.42724609 L102.955938,5.42724609 L102.955938,4.76806641 L111.430059,4.76806641 Z M120.241094,4.76806641 L116.264043,9.50683594 L116.264043,15 L115.473027,15 L115.473027,9.50683594 L111.495977,4.76806641 L112.455449,4.76806641 L115.875859,8.81835938 L119.281621,4.76806641 L120.241094,4.76806641 Z" id="path-3"></path>
        <filter x="-2.8%" y="-24.0%" width="107.9%" height="167.2%" filterUnits="objectBoundingBox" id="filter-4">
            <feOffset dx="1" dy="1" in="SourceAlpha" result="shadowOffsetOuter1"></feOffset>
            <feGaussianBlur stdDeviation="1" in="shadowOffsetOuter1" result="shadowBlurOuter1"></feGaussianBlur>
            <feColorMatrix values="0 0 0 0 0   0 0 0 0 0   0 0 0 0 0  0 0 0 0.5 0" type="matrix" in="shadowBlurOuter1"></feColorMatrix>
        </filter>
        <path d="M3.612,7.26 C3.39599892,7.16399952 3.17600112,7.116 2.952,7.116 C2.40799728,7.116 2.136,7.49199624 2.136,8.244 L2.136,9.168 L3.372,9.168 L3.372,9.972 L2.136,9.972 L2.136,15 L1.152,15 L1.152,9.972 L0.36,9.972 L0.36,9.228 L1.152,9.168 L1.152,8.244 C1.152,7.643997 1.28999862,7.17200172 1.566,6.828 C1.84200138,6.48399828 2.27199708,6.312 2.856,6.312 C3.04000092,6.312 3.21399918,6.32999982 3.378,6.366 C3.54200082,6.40200018 3.69199932,6.44799972 3.828,6.504 L3.612,7.26 Z M4.488,9.168 L5.304,9.168 L5.388,10.224 L5.424,10.224 C5.624001,9.85599816 5.86599858,9.56400108 6.15,9.348 C6.43400142,9.13199892 6.74399832,9.024 7.08,9.024 C7.31200116,9.024 7.51999908,9.0639996 7.704,9.144 L7.512,10.008 C7.41599952,9.97599984 7.3280004,9.95200008 7.248,9.936 C7.1679996,9.91999992 7.0680006,9.912 6.948,9.912 C6.69999876,9.912 6.44200134,10.011999 6.174,10.212 C5.90599866,10.412001 5.672001,10.7599975 5.472,11.256 L5.472,15 L4.488,15 L4.488,9.168 Z M8.1,12.096 C8.1,11.6079976 8.17399926,11.1740019 8.322,10.794 C8.47000074,10.4139981 8.66799876,10.0920013 8.916,9.828 C9.16400124,9.56399868 9.44999838,9.36400068 9.774,9.228 C10.0980016,9.09199932 10.4399982,9.024 10.8,9.024 C11.1600018,9.024 11.5019984,9.09199932 11.826,9.228 C12.1500016,9.36400068 12.4359988,9.56399868 12.684,9.828 C12.9320012,10.0920013 13.1299993,10.4139981 13.278,10.794 C13.4260007,11.1740019 13.5,11.6079976 13.5,12.096 C13.5,12.5760024 13.4260007,13.0059981 13.278,13.386 C13.1299993,13.7660019 12.9320012,14.0859987 12.684,14.346 C12.4359988,14.6060013 12.1500016,14.8039993 11.826,14.94 C11.5019984,15.0760007 11.1600018,15.144 10.8,15.144 C10.4399982,15.144 10.0980016,15.0760007 9.774,14.94 C9.44999838,14.8039993 9.16400124,14.6060013 8.916,14.346 C8.66799876,14.0859987 8.47000074,13.7660019 8.322,13.386 C8.17399926,13.0059981 8.1,12.5760024 8.1,12.096 Z M9.12,12.096 C9.12,12.4320017 9.1599996,12.7359986 9.24,13.008 C9.3200004,13.2800014 9.43399926,13.513999 9.582,13.71 C9.73000074,13.906001 9.90799896,14.0579995 10.116,14.166 C10.324001,14.2740005 10.5519988,14.328 10.8,14.328 C11.0480012,14.328 11.275999,14.2740005 11.484,14.166 C11.692001,14.0579995 11.8699993,13.906001 12.018,13.71 C12.1660007,13.513999 12.2799996,13.2800014 12.36,13.008 C12.4400004,12.7359986 12.48,12.4320017 12.48,12.096 C12.48,11.7599983 12.4400004,11.4540014 12.36,11.178 C12.2799996,10.9019986 12.1660007,10.664001 12.018,10.464 C11.8699993,10.263999 11.692001,10.1100005 11.484,10.002 C11.275999,9.89399946 11.0480012,9.84 10.8,9.84 C10.5519988,9.84 10.324001,9.89399946 10.116,10.002 C9.90799896,10.1100005 9.73000074,10.263999 9.582,10.464 C9.43399926,10.664001 9.3200004,10.9019986 9.24,11.178 C9.1599996,11.4540014 9.12,11.7599983 9.12,12.096 Z M15.036,9.168 L15.852,9.168 L15.936,10.008 L15.972,10.008 C16.2280013,9.7279986 16.5059985,9.49400094 16.806,9.306 C17.1060015,9.11799906 17.4319982,9.024 17.784,9.024 C18.2320022,9.024 18.5819987,9.12199902 18.834,9.318 C19.0860013,9.51400098 19.2719994,9.78799824 19.392,10.14 C19.6960015,9.80399832 20.0019985,9.53400102 20.31,9.33 C20.6180015,9.12599898 20.9519982,9.024 21.312,9.024 C21.912003,9.024 22.3579985,9.21599808 22.65,9.6 C22.9420015,9.98400192 23.088,10.5519962 23.088,11.304 L23.088,15 L22.104,15 L22.104,11.436 C22.104,10.8839972 22.0160009,10.4860012 21.84,10.242 C21.6639991,9.99799878 21.3920018,9.876 21.024,9.876 C20.5839978,9.876 20.0960027,10.175997 19.56,10.776 L19.56,15 L18.576,15 L18.576,11.436 C18.576,10.8839972 18.4880009,10.4860012 18.312,10.242 C18.1359991,9.99799878 17.8600019,9.876 17.484,9.876 C17.0439978,9.876 16.5560027,10.175997 16.02,10.776 L16.02,15 L15.036,15 L15.036,9.168 Z" id="path-5"></path>
        <filter x="-4.4%" y="-11.3%" width="117.6%" height="145.3%" filterUnits="objectBoundingBox" id="filter-6">
            <feOffset dx="1" dy="1" in="SourceAlpha" result="shadowOffsetOuter1"></feOffset>
            <feGaussianBlur stdDeviation="0.5" in="shadowOffsetOuter1" result="shadowBlurOuter1"></feGaussianBlur>
            <feColorMatrix values="0 0 0 0 0   0 0 0 0 0   0 0 0 0 0  0 0 0 0.5 0" type="matrix" in="shadowBlurOuter1"></feColorMatrix>
        </filter>
    </defs>
    <g id="Globe" stroke="none" stroke-width="1" fill="none" fill-rule="evenodd">
        <g id="iPhone-8" transform="translate(-80.000000, -32.000000)">
            <g id="Happy" transform="translate(80.000000, 32.000000)">
                <g id="HAPPY-HOLIDAYS">
                    <use fill="black" fill-opacity="1" filter="url(#filter-2)" xlink:href="#path-1"></use>
                    <use fill="#FFFFFF" fill-rule="evenodd" xlink:href="#path-1"></use>
                </g>
                <path d="M20.9999499,17.1562663 C20.9062002,17.3437659 20.7499508,17.4531404 20.531201,17.4843905 L17.3905835,18.0937641 L20.6718257,19.9687596 C20.8593253,20.0625094 20.9765125,20.2109468 21.0233874,20.414071 C21.0702623,20.6171953 21.0468248,20.8125076 20.953075,21.0000072 C20.8593253,21.1875067 20.7108879,21.3046939 20.5077636,21.3515688 C20.3046393,21.3984437 20.1093271,21.3750063 19.9218275,21.2812565 L16.6405853,19.3593861 L17.7187078,22.3593789 C17.7812074,22.5781286 17.7655826,22.7812529 17.6718329,22.9687525 C17.5780831,23.156252 17.4296457,23.281252 17.2265214,23.3437516 C17.0233972,23.4062512 16.8280849,23.3906265 16.6405853,23.2968767 C16.4530858,23.2031269 16.3280858,23.0468775 16.2655862,22.8281278 L15.0468391,18.4687632 L11.2968481,16.3125183 L11.2968481,20.625008 L14.4843405,23.8593753 C14.6405899,24.0156247 14.7109022,24.1953123 14.6952775,24.3984366 C14.6796527,24.6015608 14.593715,24.7734357 14.4374656,24.9140603 C14.2812162,25.054685 14.1015286,25.1249973 13.8984044,25.1249973 C13.6952801,25.1249973 13.5155925,25.0468723 13.3593431,24.8906229 L11.2968481,22.4531287 L11.2968481,26.2499946 C11.2968481,26.4687444 11.2265357,26.6484312 11.0859111,26.7890559 C10.9452864,26.9296805 10.7734116,26.9999928 10.5702873,26.9999928 C10.367163,26.9999928 10.1874755,26.9296805 10.0312261,26.7890559 C9.87497669,26.6484312 9.79685164,26.4687444 9.79685164,26.2499946 L9.79685164,22.4531287 L7.73435656,24.8906229 C7.60935662,25.0468723 7.43748251,25.1249973 7.21873279,25.1249973 C6.99998307,25.1249973 6.82029624,25.054685 6.67967157,24.9140603 C6.53904691,24.7734357 6.46092186,24.6015608 6.44529713,24.3984366 C6.42967241,24.1953123 6.4843593,24.0156247 6.60935924,23.8593753 L9.79685164,20.625008 L9.79685164,16.3125183 L6.04686058,18.4687632 L4.82811349,22.8281278 C4.76561388,23.0468775 4.64061394,23.2031269 4.45311438,23.2968767 C4.26561483,23.3906265 4.07811528,23.4062512 3.89061572,23.3437516 C3.70311617,23.281252 3.56249151,23.156252 3.46874173,22.9687525 C3.37499195,22.7812529 3.35936723,22.5781286 3.42186684,22.3593789 L4.49998927,19.3593861 L1.17187221,21.2812565 C1.01562282,21.3750063 0.835935269,21.3984437 0.632810991,21.3515688 C0.429686714,21.3046939 0.27343661,21.1875067 0.164062109,21.0000072 C0.054687608,20.8125076 0.0312501639,20.6171953 0.0937497765,20.414071 C0.156249389,20.2109468 0.265624605,20.0625094 0.421873994,19.9687596 L3.74999106,18.0937641 L0.609373547,17.4843905 C0.39062383,17.4531404 0.226561721,17.3515786 0.117187221,17.1797038 C0.00781271979,17.0078289 -0.0234374441,16.8203294 0.0234374441,16.6172051 C0.0703123324,16.4140808 0.179686833,16.2578307 0.351561662,16.1484562 C0.52343649,16.0390817 0.703123324,16.0000188 0.890622877,16.031269 L5.29686237,17.1562663 L9.42185254,15.0000215 L5.29686237,12.8437766 L0.890622877,13.9687739 C0.703123324,14.0000241 0.52343649,13.9609612 0.351561662,13.8515867 C0.179686833,13.7422122 0.0703123324,13.5859621 0.0234374441,13.3828378 C-0.0234374441,13.1797135 0.00781271979,12.992214 0.117187221,12.8203392 C0.226561721,12.6484643 0.39062383,12.5469025 0.609373547,12.5156524 L3.74999106,11.9062788 L0.421873994,10.0312833 C0.265624605,9.93753353 0.156249389,9.78909614 0.0937497765,9.58597187 C0.0312501639,9.38284759 0.054687608,9.18753532 0.164062109,9.00003576 C0.27343661,8.81253621 0.429686714,8.69534899 0.632810991,8.6484741 C0.835935269,8.60159921 1.01562282,8.62503666 1.17187221,8.71878643 L4.49998927,10.6406569 L3.42186684,7.640664 C3.35936723,7.42191429 3.37499195,7.21879001 3.46874173,7.03129046 C3.56249151,6.8437909 3.70311617,6.71879096 3.89061572,6.65629135 C4.07811528,6.59379174 4.26561483,6.60941646 4.45311438,6.70316624 C4.64061394,6.79691602 4.76561388,6.9531654 4.82811349,7.17191512 L6.04686058,11.5312797 L9.79685164,13.6875246 L9.79685164,9.37503487 L6.60935924,6.14066758 C6.4843593,5.98441819 6.42967241,5.80473064 6.44529713,5.60160637 C6.46092186,5.39848209 6.53904691,5.22660726 6.67967157,5.08598259 C6.82029624,4.94535793 6.99998307,4.8750456 7.21873279,4.8750456 C7.43748251,4.8750456 7.60935662,4.95317065 7.73435656,5.10942004 L9.79685164,7.54691423 L9.79685164,3.75004828 C9.79685164,3.53129856 9.87497669,3.35161173 10.0312261,3.21098706 C10.1874755,3.0703624 10.367163,3.00005007 10.5702873,3.00005007 C10.7734116,3.00005007 10.9452864,3.0703624 11.0859111,3.21098706 C11.2265357,3.35161173 11.2968481,3.53129856 11.2968481,3.75004828 L11.2968481,7.54691423 L13.3593431,5.10942004 C13.5155925,4.95317065 13.6952801,4.8750456 13.8984044,4.8750456 C14.1015286,4.8750456 14.2812162,4.94535793 14.4374656,5.08598259 C14.593715,5.22660726 14.6796527,5.39848209 14.6952775,5.60160637 C14.7109022,5.80473064 14.6405899,5.98441819 14.4843405,6.14066758 L11.2968481,9.37503487 L11.2968481,13.6875246 L15.0468391,11.5312797 L16.2655862,7.17191512 C16.3280858,6.9531654 16.4530858,6.79691602 16.6405853,6.70316624 C16.8280849,6.60941646 17.0233972,6.59379174 17.2265214,6.65629135 C17.4296457,6.71879096 17.5780831,6.8437909 17.6718329,7.03129046 C17.7655826,7.21879001 17.7812074,7.42191429 17.7187078,7.640664 L16.6405853,10.6406569 L19.9218275,8.71878643 C20.1093271,8.62503666 20.3046393,8.60159921 20.5077636,8.6484741 C20.7108879,8.69534899 20.8593253,8.81253621 20.953075,9.00003576 C21.0468248,9.18753532 21.0702623,9.38284759 21.0233874,9.58597187 C20.9765125,9.78909614 20.8593253,9.93753353 20.6718257,10.0312833 L17.3905835,11.9062788 L20.531201,12.5156524 C20.7187006,12.5469025 20.867138,12.6484643 20.9765125,12.8203392 C21.085887,12.992214 21.1249499,13.1797135 21.0936997,13.3828378 C21.0624495,13.5859621 20.9608878,13.7422122 20.7890129,13.8515867 C20.6171381,13.9609612 20.4218265,14.0000241 20.2030768,13.9687739 L15.7968373,12.8437766 L11.6718472,15.0000215 L15.7968373,17.1562663 L20.2030768,16.031269 C20.4218265,16.0000188 20.6171381,16.0390817 20.7890129,16.1484562 C20.9608878,16.2578307 21.0624495,16.4062681 21.0936997,16.5937677 C21.1249499,16.7812672 21.0936997,16.9687668 20.9999499,17.1562663 Z" id="snowflake" fill="#FFFFFF"></path>
                <path d="M209.99995,17.1562663 C209.9062,17.3437659 209.749951,17.4531404 209.531201,17.4843905 L206.390584,18.0937641 L209.671826,19.9687596 C209.859325,20.0625094 209.976512,20.2109468 210.023387,20.414071 C210.070262,20.6171953 210.046825,20.8125076 209.953075,21.0000072 C209.859325,21.1875067 209.710888,21.3046939 209.507764,21.3515688 C209.304639,21.3984437 209.109327,21.3750063 208.921828,21.2812565 L205.640585,19.3593861 L206.718708,22.3593789 C206.781207,22.5781286 206.765583,22.7812529 206.671833,22.9687525 C206.578083,23.156252 206.429646,23.281252 206.226521,23.3437516 C206.023397,23.4062512 205.828085,23.3906265 205.640585,23.2968767 C205.453086,23.2031269 205.328086,23.0468775 205.265586,22.8281278 L204.046839,18.4687632 L200.296848,16.3125183 L200.296848,20.625008 L203.48434,23.8593753 C203.64059,24.0156247 203.710902,24.1953123 203.695277,24.3984366 C203.679653,24.6015608 203.593715,24.7734357 203.437466,24.9140603 C203.281216,25.054685 203.101529,25.1249973 202.898404,25.1249973 C202.69528,25.1249973 202.515593,25.0468723 202.359343,24.8906229 L200.296848,22.4531287 L200.296848,26.2499946 C200.296848,26.4687444 200.226536,26.6484312 200.085911,26.7890559 C199.945286,26.9296805 199.773412,26.9999928 199.570287,26.9999928 C199.367163,26.9999928 199.187475,26.9296805 199.031226,26.7890559 C198.874977,26.6484312 198.796852,26.4687444 198.796852,26.2499946 L198.796852,22.4531287 L196.734357,24.8906229 C196.609357,25.0468723 196.437483,25.1249973 196.218733,25.1249973 C195.999983,25.1249973 195.820296,25.054685 195.679672,24.9140603 C195.539047,24.7734357 195.460922,24.6015608 195.445297,24.3984366 C195.429672,24.1953123 195.484359,24.0156247 195.609359,23.8593753 L198.796852,20.625008 L198.796852,16.3125183 L195.046861,18.4687632 L193.828113,22.8281278 C193.765614,23.0468775 193.640614,23.2031269 193.453114,23.2968767 C193.265615,23.3906265 193.078115,23.4062512 192.890616,23.3437516 C192.703116,23.281252 192.562492,23.156252 192.468742,22.9687525 C192.374992,22.7812529 192.359367,22.5781286 192.421867,22.3593789 L193.499989,19.3593861 L190.171872,21.2812565 C190.015623,21.3750063 189.835935,21.3984437 189.632811,21.3515688 C189.429687,21.3046939 189.273437,21.1875067 189.164062,21.0000072 C189.054688,20.8125076 189.03125,20.6171953 189.09375,20.414071 C189.156249,20.2109468 189.265625,20.0625094 189.421874,19.9687596 L192.749991,18.0937641 L189.609374,17.4843905 C189.390624,17.4531404 189.226562,17.3515786 189.117187,17.1797038 C189.007813,17.0078289 188.976563,16.8203294 189.023437,16.6172051 C189.070312,16.4140808 189.179687,16.2578307 189.351562,16.1484562 C189.523436,16.0390817 189.703123,16.0000188 189.890623,16.031269 L194.296862,17.1562663 L198.421853,15.0000215 L194.296862,12.8437766 L189.890623,13.9687739 C189.703123,14.0000241 189.523436,13.9609612 189.351562,13.8515867 C189.179687,13.7422122 189.070312,13.5859621 189.023437,13.3828378 C188.976563,13.1797135 189.007813,12.992214 189.117187,12.8203392 C189.226562,12.6484643 189.390624,12.5469025 189.609374,12.5156524 L192.749991,11.9062788 L189.421874,10.0312833 C189.265625,9.93753353 189.156249,9.78909614 189.09375,9.58597187 C189.03125,9.38284759 189.054688,9.18753532 189.164062,9.00003576 C189.273437,8.81253621 189.429687,8.69534899 189.632811,8.6484741 C189.835935,8.60159921 190.015623,8.62503666 190.171872,8.71878643 L193.499989,10.6406569 L192.421867,7.640664 C192.359367,7.42191429 192.374992,7.21879001 192.468742,7.03129046 C192.562492,6.8437909 192.703116,6.71879096 192.890616,6.65629135 C193.078115,6.59379174 193.265615,6.60941646 193.453114,6.70316624 C193.640614,6.79691602 193.765614,6.9531654 193.828113,7.17191512 L195.046861,11.5312797 L198.796852,13.6875246 L198.796852,9.37503487 L195.609359,6.14066758 C195.484359,5.98441819 195.429672,5.80473064 195.445297,5.60160637 C195.460922,5.39848209 195.539047,5.22660726 195.679672,5.08598259 C195.820296,4.94535793 195.999983,4.8750456 196.218733,4.8750456 C196.437483,4.8750456 196.609357,4.95317065 196.734357,5.10942004 L198.796852,7.54691423 L198.796852,3.75004828 C198.796852,3.53129856 198.874977,3.35161173 199.031226,3.21098706 C199.187475,3.0703624 199.367163,3.00005007 199.570287,3.00005007 C199.773412,3.00005007 199.945286,3.0703624 200.085911,3.21098706 C200.226536,3.35161173 200.296848,3.53129856 200.296848,3.75004828 L200.296848,7.54691423 L202.359343,5.10942004 C202.515593,4.95317065 202.69528,4.8750456 202.898404,4.8750456 C203.101529,4.8750456 203.281216,4.94535793 203.437466,5.08598259 C203.593715,5.22660726 203.679653,5.39848209 203.695277,5.60160637 C203.710902,5.80473064 203.64059,5.98441819 203.48434,6.14066758 L200.296848,9.37503487 L200.296848,13.6875246 L204.046839,11.5312797 L205.265586,7.17191512 C205.328086,6.9531654 205.453086,6.79691602 205.640585,6.70316624 C205.828085,6.60941646 206.023397,6.59379174 206.226521,6.65629135 C206.429646,6.71879096 206.578083,6.8437909 206.671833,7.03129046 C206.765583,7.21879001 206.781207,7.42191429 206.718708,7.640664 L205.640585,10.6406569 L208.921828,8.71878643 C209.109327,8.62503666 209.304639,8.60159921 209.507764,8.6484741 C209.710888,8.69534899 209.859325,8.81253621 209.953075,9.00003576 C210.046825,9.18753532 210.070262,9.38284759 210.023387,9.58597187 C209.976512,9.78909614 209.859325,9.93753353 209.671826,10.0312833 L206.390584,11.9062788 L209.531201,12.5156524 C209.718701,12.5469025 209.867138,12.6484643 209.976512,12.8203392 C210.085887,12.992214 210.12495,13.1797135 210.0937,13.3828378 C210.06245,13.5859621 209.960888,13.7422122 209.789013,13.8515867 C209.617138,13.9609612 209.421827,14.0000241 209.203077,13.9687739 L204.796837,12.8437766 L200.671847,15.0000215 L204.796837,17.1562663 L209.203077,16.031269 C209.421827,16.0000188 209.617138,16.0390817 209.789013,16.1484562 C209.960888,16.2578307 210.06245,16.4062681 210.0937,16.5937677 C210.12495,16.7812672 210.0937,16.9687668 209.99995,17.1562663 Z" id="snowflake" fill="#FFFFFF"></path>
                <g id="from-TY" transform="translate(47.000000, 89.000000)">
                    <g id="TRACKUITY">
                        <use fill="black" fill-opacity="1" filter="url(#filter-4)" xlink:href="#path-3"></use>
                        <use fill="#FFFFFF" fill-rule="evenodd" xlink:href="#path-3"></use>
                    </g>
                    <g id="from">
                        <use fill="black" fill-opacity="1" filter="url(#filter-6)" xlink:href="#path-5"></use>
                        <use fill="#FFFFFF" fill-rule="evenodd" xlink:href="#path-5"></use>
                    </g>
                </g>
            </g>
        </g>
    </g>
</svg>