<?xml version="1.0" encoding="UTF-8"?>
<svg width="610px" height="83px" viewBox="0 0 610 83" version="1.1" xmlns="http://www.w3.org/2000/svg" xmlns:xlink="http://www.w3.org/1999/xlink">
    <!-- Generator: Sketch 52.2 (67145) - http://www.bohemiancoding.com/sketch -->
    <title>Happy</title>
    <desc>Created with Sketch.</desc>
    <defs>
        <path d="M68.62,0.88 L77.44,0.88 L77.44,15.94 L90.94,15.94 L90.94,0.88 L99.82,0.88 L99.82,40 L90.94,40 L90.94,23.68 L77.44,23.68 L77.44,40 L68.62,40 L68.62,0.88 Z M127.62,23.8 L126.72,20.2 C126.159997,18.2399902 125.620003,16.160011 125.1,13.96 C124.579997,11.759989 124.060003,9.6400102 123.54,7.6 L123.3,7.6 C122.819998,9.6800104 122.330002,11.8099891 121.83,13.99 C121.329997,16.1700109 120.800003,18.2399902 120.24,20.2 L119.28,23.8 L127.62,23.8 Z M129.42,30.7 L117.48,30.7 L115.08,40 L106.08,40 L118.32,0.88 L128.94,0.88 L141.18,40 L131.82,40 L129.42,30.7 Z M147.44,0.88 L161.72,0.88 C163.840011,0.88 165.829991,1.0899979 167.69,1.51 C169.550009,1.9300021 171.169993,2.6299951 172.55,3.61 C173.930007,4.5900049 175.019996,5.8899919 175.82,7.51 C176.620004,9.1300081 177.02,11.1199882 177.02,13.48 C177.02,15.7600114 176.610004,17.7399916 175.79,19.42 C174.969996,21.1000084 173.860007,22.4799946 172.46,23.56 C171.059993,24.6400054 169.440009,25.4399974 167.6,25.96 C165.759991,26.4800026 163.80001,26.74 161.72,26.74 L156.26,26.74 L156.26,40 L147.44,40 L147.44,0.88 Z M161.18,19.72 C165.980024,19.72 168.38,17.6400208 168.38,13.48 C168.38,11.4399898 167.770006,10.0000042 166.55,9.16 C165.329994,8.3199958 163.540012,7.9 161.18,7.9 L156.26,7.9 L156.26,19.72 L161.18,19.72 Z M185.8,0.88 L200.08,0.88 C202.200011,0.88 204.189991,1.0899979 206.05,1.51 C207.910009,1.9300021 209.529993,2.6299951 210.91,3.61 C212.290007,4.5900049 213.379996,5.8899919 214.18,7.51 C214.980004,9.1300081 215.38,11.1199882 215.38,13.48 C215.38,15.7600114 214.970004,17.7399916 214.15,19.42 C213.329996,21.1000084 212.220007,22.4799946 210.82,23.56 C209.419993,24.6400054 207.800009,25.4399974 205.96,25.96 C204.119991,26.4800026 202.16001,26.74 200.08,26.74 L194.62,26.74 L194.62,40 L185.8,40 L185.8,0.88 Z M199.54,19.72 C204.340024,19.72 206.74,17.6400208 206.74,13.48 C206.74,11.4399898 206.130006,10.0000042 204.91,9.16 C203.689994,8.3199958 201.900012,7.9 199.54,7.9 L194.62,7.9 L194.62,19.72 L199.54,19.72 Z M230.28,26.08 L218.46,0.88 L227.94,0.88 L231.42,9.88 C231.980003,11.3600074 232.509997,12.7899931 233.01,14.17 C233.510002,15.5500069 234.039997,16.9999924 234.6,18.52 L234.84,18.52 C235.400003,16.9999924 235.949997,15.5500069 236.49,14.17 C237.030003,12.7899931 237.579997,11.3600074 238.14,9.88 L241.68,0.88 L250.92,0.88 L239.1,26.08 L239.1,40 L230.28,40 L230.28,26.08 Z M271.54,0.88 L280.36,0.88 L280.36,15.94 L293.86,15.94 L293.86,0.88 L302.74,0.88 L302.74,40 L293.86,40 L293.86,23.68 L280.36,23.68 L280.36,40 L271.54,40 L271.54,0.88 Z M329.88,40.72 C327.239987,40.72 324.830011,40.2500047 322.65,39.31 C320.469989,38.3699953 318.600008,37.0200088 317.04,35.26 C315.479992,33.4999912 314.270004,31.3600126 313.41,28.84 C312.549996,26.3199874 312.12,23.460016 312.12,20.26 C312.12,17.059984 312.549996,14.2100125 313.41,11.71 C314.270004,9.2099875 315.479992,7.1100085 317.04,5.41 C318.600008,3.7099915 320.469989,2.4100045 322.65,1.51 C324.830011,0.6099955 327.239987,0.16 329.88,0.16 C332.520013,0.16 334.929989,0.6099955 337.11,1.51 C339.290011,2.4100045 341.159992,3.7199914 342.72,5.44 C344.280008,7.1600086 345.489996,9.2699875 346.35,11.77 C347.210004,14.2700125 347.64,17.0999842 347.64,20.26 C347.64,23.460016 347.210004,26.3199874 346.35,28.84 C345.489996,31.3600126 344.280008,33.4999912 342.72,35.26 C341.159992,37.0200088 339.290011,38.3699953 337.11,39.31 C334.929989,40.2500047 332.520013,40.72 329.88,40.72 Z M329.88,33.1 C332.560013,33.1 334.679992,31.9500115 336.24,29.65 C337.800008,27.3499885 338.58,24.2200198 338.58,20.26 C338.58,16.3399804 337.800008,13.280011 336.24,11.08 C334.679992,8.879989 332.560013,7.78 329.88,7.78 C327.199987,7.78 325.080008,8.879989 323.52,11.08 C321.959992,13.280011 321.18,16.3399804 321.18,20.26 C321.18,24.2200198 321.959992,27.3499885 323.52,29.65 C325.080008,31.9500115 327.199987,33.1 329.88,33.1 Z M357.02,0.88 L365.84,0.88 L365.84,32.56 L381.32,32.56 L381.32,40 L357.02,40 L357.02,0.88 Z M390.1,0.88 L398.92,0.88 L398.92,40 L390.1,40 L390.1,0.88 Z M410.16,0.88 L421.2,0.88 C424.200015,0.88 426.899988,1.2599962 429.3,2.02 C431.700012,2.7800038 433.759991,3.9499921 435.48,5.53 C437.200009,7.1100079 438.519995,9.1199878 439.44,11.56 C440.360005,14.0000122 440.82,16.8999832 440.82,20.26 C440.82,23.6200168 440.360005,26.5399876 439.44,29.02 C438.519995,31.5000124 437.220008,33.5499919 435.54,35.17 C433.859992,36.7900081 431.850012,37.999996 429.51,38.8 C427.169988,39.600004 424.560014,40 421.68,40 L410.16,40 L410.16,0.88 Z M420.66,32.86 C422.340008,32.86 423.859993,32.6400022 425.22,32.2 C426.580007,31.7599978 427.739995,31.0500049 428.7,30.07 C429.660005,29.0899951 430.409997,27.800008 430.95,26.2 C431.490003,24.599992 431.76,22.6200118 431.76,20.26 C431.76,17.9399884 431.490003,15.9900079 430.95,14.41 C430.409997,12.8299921 429.660005,11.5700047 428.7,10.63 C427.739995,9.6899953 426.580007,9.020002 425.22,8.62 C423.859993,8.219998 422.340008,8.02 420.66,8.02 L418.98,8.02 L418.98,32.86 L420.66,32.86 Z M466.22,23.8 L465.32,20.2 C464.759997,18.2399902 464.220003,16.160011 463.7,13.96 C463.179997,11.759989 462.660003,9.6400102 462.14,7.6 L461.9,7.6 C461.419998,9.6800104 460.930002,11.8099891 460.43,13.99 C459.929997,16.1700109 459.400003,18.2399902 458.84,20.2 L457.88,23.8 L466.22,23.8 Z M468.02,30.7 L456.08,30.7 L453.68,40 L444.68,40 L456.92,0.88 L467.54,0.88 L479.78,40 L470.42,40 L468.02,30.7 Z M491.68,26.08 L479.86,0.88 L489.34,0.88 L492.82,9.88 C493.380003,11.3600074 493.909997,12.7899931 494.41,14.17 C494.910002,15.5500069 495.439997,16.9999924 496,18.52 L496.24,18.52 C496.800003,16.9999924 497.349997,15.5500069 497.89,14.17 C498.430003,12.7899931 498.979997,11.3600074 499.54,9.88 L503.08,0.88 L512.32,0.88 L500.5,26.08 L500.5,40 L491.68,40 L491.68,26.08 Z M520.98,29.02 C522.380007,30.220006 523.929991,31.1999962 525.63,31.96 C527.330008,32.7200038 528.999992,33.1 530.64,33.1 C532.480009,33.1 533.849995,32.7600034 534.75,32.08 C535.650004,31.3999966 536.1,30.4800058 536.1,29.32 C536.1,28.719997 535.970001,28.2000022 535.71,27.76 C535.449999,27.3199978 535.070002,26.9300017 534.57,26.59 C534.069997,26.2499983 533.470003,25.9300015 532.77,25.63 L530.46,24.64 L525.36,22.48 C524.359995,22.079998 523.390005,21.5600032 522.45,20.92 C521.509995,20.2799968 520.670004,19.5300043 519.93,18.67 C519.189996,17.8099957 518.600002,16.8100057 518.16,15.67 C517.719998,14.5299943 517.5,13.2400072 517.5,11.8 C517.5,10.199992 517.839997,8.6900071 518.52,7.27 C519.200003,5.8499929 520.159994,4.6100053 521.4,3.55 C522.640006,2.4899947 524.109991,1.660003 525.81,1.06 C527.510008,0.459997 529.37999,0.16 531.42,0.16 C533.700011,0.16 535.949989,0.5999956 538.17,1.48 C540.390011,2.3600044 542.339992,3.6399916 544.02,5.32 L539.52,10.9 C538.239994,9.899995 536.960006,9.1300027 535.68,8.59 C534.399994,8.0499973 532.980008,7.78 531.42,7.78 C529.899992,7.78 528.690004,8.0899969 527.79,8.71 C526.889995,9.3300031 526.44,10.1999944 526.44,11.32 C526.44,11.920003 526.589998,12.4299979 526.89,12.85 C527.190001,13.2700021 527.609997,13.6499983 528.15,13.99 C528.690003,14.3300017 529.319996,14.6499985 530.04,14.95 C530.760004,15.2500015 531.539996,15.5799982 532.38,15.94 L537.42,17.98 C539.820012,18.9400048 541.709993,20.2599916 543.09,21.94 C544.470007,23.6200084 545.16,25.8399862 545.16,28.6 C545.16,30.2400082 544.830003,31.7899927 544.17,33.25 C543.509997,34.7100073 542.550006,35.9899945 541.29,37.09 C540.029994,38.1900055 538.480009,39.0699967 536.64,39.73 C534.799991,40.3900033 532.720012,40.72 530.4,40.72 C527.839987,40.72 525.290013,40.2500047 522.75,39.31 C520.209987,38.3699953 517.94001,36.9600094 515.94,35.08 L520.98,29.02 Z" id="path-1"></path>
        <filter x="-1.0%" y="-12.3%" width="102.9%" height="134.5%" filterUnits="objectBoundingBox" id="filter-2">
            <feOffset dx="2" dy="2" in="SourceAlpha" result="shadowOffsetOuter1"></feOffset>
            <feGaussianBlur stdDeviation="2" in="shadowOffsetOuter1" result="shadowBlurOuter1"></feGaussianBlur>
            <feColorMatrix values="0 0 0 0 0.816203773   0 0 0 0 0.00751322834   0 0 0 0 0.106696017  0 0 0 1 0" type="matrix" in="shadowBlurOuter1"></feColorMatrix>
        </filter>
        <path d="M66.6633945,4.21923828 L60.9583164,4.21923828 L60.9583164,16 L56.2752109,16 L56.2752109,4.21923828 L50.5701328,4.21923828 L50.5701328,0.434570312 L66.6633945,0.434570312 L66.6633945,4.21923828 Z M84.474918,16 L79.4324375,16 L78.2083164,13.2373047 C77.7590954,12.2265574 77.3548026,11.4872256 76.9954258,11.0192871 C76.636049,10.5513486 76.2860362,10.2518724 75.945377,10.1208496 C75.6047177,9.98982682 75.1648621,9.92431641 74.6257969,9.92431641 L74.0979648,9.92431641 L74.0979648,16 L69.4036289,16 L69.4036289,0.434570312 L77.3884922,0.434570312 C78.676259,0.434570312 79.7319125,0.696611963 80.5554844,1.22070312 C81.3790562,1.74479429 81.9723934,2.38118115 82.3355137,3.12988281 C82.698634,3.87858447 82.8801914,4.58984038 82.8801914,5.26367188 C82.8801914,6.04980862 82.7285816,6.71427137 82.4253574,7.25708008 C82.1221332,7.79988878 81.8020681,8.19482298 81.4651523,8.44189453 C81.1282366,8.68896608 80.7501479,8.92480356 80.330875,9.14941406 C80.8325051,9.44140771 81.2461566,9.78767703 81.5718418,10.1882324 C81.897527,10.5887878 82.3411261,11.3992452 82.9026523,12.6196289 L84.474918,16 Z M78.0960117,5.35351562 C78.0960117,4.63476203 77.8601742,4.13313944 77.3884922,3.84863281 C76.9168101,3.56412618 76.1494025,3.421875 75.0862461,3.421875 L74.0979648,3.421875 L74.0979648,7.17285156 L75.108707,7.17285156 C76.2542206,7.17285156 77.0384738,7.04744592 77.4614902,6.79663086 C77.8845067,6.5458158 78.0960117,6.0647822 78.0960117,5.35351562 Z M103.70148,16 L98.8948398,16 L97.6257969,12.8442383 L90.8650547,12.8442383 L89.5735508,16 L84.7669102,16 L91.6511875,0.434570312 L96.8396641,0.434570312 L103.70148,16 Z M96.5476719,10.1376953 L94.2678867,4.45507812 L91.9656406,10.1376953 L96.5476719,10.1376953 Z M119.379215,14.8320312 C118.735331,15.168947 118.076484,15.4384756 117.402652,15.640625 C116.728821,15.8427744 116.049384,15.9868974 115.364322,16.072998 C114.67926,16.1590987 113.969876,16.2021484 113.236148,16.2021484 C111.880998,16.2021484 110.666248,16.0149758 109.591861,15.640625 C108.517474,15.2662742 107.585355,14.714115 106.795475,13.9841309 C106.005594,13.2541467 105.414129,12.4006397 105.021061,11.423584 C104.627992,10.4465283 104.431461,9.37402928 104.431461,8.20605469 C104.431461,6.86587872 104.663555,5.69230647 105.12775,4.68530273 C105.591945,3.678299 106.241434,2.84163745 107.076236,2.17529297 C107.911039,1.50894849 108.861876,1.01668453 109.928775,0.698486328 C110.995675,0.380288123 112.120583,0.221191406 113.303531,0.221191406 C115.070467,0.221191406 117.073214,0.614253882 119.311832,1.40039062 L119.311832,5.53320312 C118.540669,5.05403406 117.778877,4.65535641 117.026432,4.3371582 C116.273986,4.01896 115.38866,3.85986328 114.370426,3.85986328 C113.464497,3.85986328 112.618477,4.03954898 111.83234,4.39892578 C111.046203,4.75830258 110.41356,5.27115552 109.934391,5.9375 C109.455222,6.60384448 109.215641,7.38248252 109.215641,8.2734375 C109.215641,9.05957424 109.425274,9.78018878 109.844547,10.4353027 C110.26382,11.0904167 110.845927,11.6107565 111.590885,11.9963379 C112.335843,12.3819192 113.176248,12.574707 114.112125,12.574707 C114.868314,12.574707 115.583313,12.4829925 116.257145,12.2995605 C116.930976,12.1161286 117.498109,11.9121105 117.958561,11.6875 C118.419012,11.4628895 118.892559,11.1971044 119.379215,10.8901367 L119.379215,14.8320312 Z M138.909,16 L133.181461,16 L127.229313,8.71142578 L127.229313,16 L122.534977,16 L122.534977,0.434570312 L127.229313,0.434570312 L127.229313,7.39746094 L132.867008,0.434570312 L137.965641,0.434570312 L132.170719,7.72314453 L138.909,16 Z M152.385563,0.311035156 L153.598453,0.311035156 L153.598453,8.86865234 C153.598453,11.2120885 152.98827,13.0201759 151.767887,14.2929688 C150.547503,15.5657616 148.967766,16.2021484 147.028629,16.2021484 C145.096979,16.2021484 143.520985,15.5732485 142.300602,14.3154297 C141.080218,13.0576109 140.470035,11.3356229 140.470035,9.14941406 L140.470035,0.311035156 L141.694156,0.311035156 L141.694156,9.10449219 C141.694156,10.9762463 142.190164,12.4399361 143.182193,13.4956055 C144.174223,14.5512748 145.456355,15.0791016 147.028629,15.0791016 C148.615876,15.0791016 149.905496,14.5456596 150.897525,13.4787598 C151.889555,12.4118599 152.385563,10.8976335 152.385563,8.93603516 L152.385563,0.311035156 Z M158.06818,0.311035156 L158.06818,16 L156.855289,16 L156.855289,0.311035156 L158.06818,0.311035156 Z M172.92609,0.311035156 L172.92609,1.32177734 L167.041324,1.32177734 L167.041324,16 L165.817203,16 L165.817203,1.32177734 L159.932438,1.32177734 L159.932438,0.311035156 L172.92609,0.311035156 Z M186.436344,0.311035156 L180.338199,7.57714844 L180.338199,16 L179.125309,16 L179.125309,7.57714844 L173.027164,0.311035156 L174.498355,0.311035156 L179.742984,6.52148438 L184.965152,0.311035156 L186.436344,0.311035156 Z" id="path-3"></path>
        <filter x="-1.8%" y="-15.6%" width="105.2%" height="143.8%" filterUnits="objectBoundingBox" id="filter-4">
            <feOffset dx="1" dy="1" in="SourceAlpha" result="shadowOffsetOuter1"></feOffset>
            <feGaussianBlur stdDeviation="1" in="shadowOffsetOuter1" result="shadowBlurOuter1"></feGaussianBlur>
            <feColorMatrix values="0 0 0 0 0   0 0 0 0 0   0 0 0 0 0  0 0 0 0.5 0" type="matrix" in="shadowBlurOuter1"></feColorMatrix>
        </filter>
        <path d="M6.02,3.1 C5.6599982,2.9399992 5.2933352,2.86 4.92,2.86 C4.0133288,2.86 3.56,3.4866604 3.56,4.74 L3.56,6.28 L5.62,6.28 L5.62,7.62 L3.56,7.62 L3.56,16 L1.92,16 L1.92,7.62 L0.6,7.62 L0.6,6.38 L1.92,6.28 L1.92,4.74 C1.92,3.739995 2.1499977,2.9533362 2.61,2.38 C3.0700023,1.8066638 3.7866618,1.52 4.76,1.52 C5.0666682,1.52 5.3566653,1.5499997 5.63,1.61 C5.9033347,1.6700003 6.1533322,1.7466662 6.38,1.84 L6.02,3.1 Z M7.48,6.28 L8.84,6.28 L8.98,8.04 L9.04,8.04 C9.373335,7.4266636 9.7766643,6.9400018 10.25,6.58 C10.7233357,6.2199982 11.2399972,6.04 11.8,6.04 C12.1866686,6.04 12.5333318,6.106666 12.84,6.24 L12.52,7.68 C12.3599992,7.6266664 12.213334,7.5866668 12.08,7.56 C11.946666,7.5333332 11.780001,7.52 11.58,7.52 C11.1666646,7.52 10.7366689,7.686665 10.29,8.02 C9.8433311,8.353335 9.453335,8.9333292 9.12,9.76 L9.12,16 L7.48,16 L7.48,6.28 Z M13.5,11.16 C13.5,10.3466626 13.6233321,9.6233365 13.87,8.99 C14.1166679,8.3566635 14.4466646,7.8200022 14.86,7.38 C15.2733354,6.9399978 15.7499973,6.6066678 16.29,6.38 C16.8300027,6.1533322 17.399997,6.04 18,6.04 C18.600003,6.04 19.1699973,6.1533322 19.71,6.38 C20.2500027,6.6066678 20.7266646,6.9399978 21.14,7.38 C21.5533354,7.8200022 21.8833321,8.3566635 22.13,8.99 C22.3766679,9.6233365 22.5,10.3466626 22.5,11.16 C22.5,11.960004 22.3766679,12.6766635 22.13,13.31 C21.8833321,13.9433365 21.5533354,14.4766645 21.14,14.91 C20.7266646,15.3433355 20.2500027,15.6733322 19.71,15.9 C19.1699973,16.1266678 18.600003,16.24 18,16.24 C17.399997,16.24 16.8300027,16.1266678 16.29,15.9 C15.7499973,15.6733322 15.2733354,15.3433355 14.86,14.91 C14.4466646,14.4766645 14.1166679,13.9433365 13.87,13.31 C13.6233321,12.6766635 13.5,11.960004 13.5,11.16 Z M15.2,11.16 C15.2,11.7200028 15.266666,12.2266644 15.4,12.68 C15.533334,13.1333356 15.7233321,13.5233317 15.97,13.85 C16.2166679,14.1766683 16.5133316,14.4299991 16.86,14.61 C17.2066684,14.7900009 17.5866646,14.88 18,14.88 C18.4133354,14.88 18.7933316,14.7900009 19.14,14.61 C19.4866684,14.4299991 19.7833321,14.1766683 20.03,13.85 C20.2766679,13.5233317 20.466666,13.1333356 20.6,12.68 C20.733334,12.2266644 20.8,11.7200028 20.8,11.16 C20.8,10.5999972 20.733334,10.0900023 20.6,9.63 C20.466666,9.1699977 20.2766679,8.773335 20.03,8.44 C19.7833321,8.106665 19.4866684,7.8500009 19.14,7.67 C18.7933316,7.4899991 18.4133354,7.4 18,7.4 C17.5866646,7.4 17.2066684,7.4899991 16.86,7.67 C16.5133316,7.8500009 16.2166679,8.106665 15.97,8.44 C15.7233321,8.773335 15.533334,9.1699977 15.4,9.63 C15.266666,10.0900023 15.2,10.5999972 15.2,11.16 Z M25.06,6.28 L26.42,6.28 L26.56,7.68 L26.62,7.68 C27.0466688,7.213331 27.5099975,6.8233349 28.01,6.51 C28.5100025,6.1966651 29.0533304,6.04 29.64,6.04 C30.3866704,6.04 30.9699979,6.2033317 31.39,6.53 C31.8100021,6.8566683 32.119999,7.3133304 32.32,7.9 C32.8266692,7.3399972 33.3366641,6.8900017 33.85,6.55 C34.3633359,6.2099983 34.919997,6.04 35.52,6.04 C36.520005,6.04 37.2633309,6.3599968 37.75,7 C38.2366691,7.6400032 38.48,8.5866604 38.48,9.84 L38.48,16 L36.84,16 L36.84,10.06 C36.84,9.1399954 36.6933348,8.4766687 36.4,8.07 C36.1066652,7.6633313 35.6533364,7.46 35.04,7.46 C34.306663,7.46 33.4933378,7.959995 32.6,8.96 L32.6,16 L30.96,16 L30.96,10.06 C30.96,9.1399954 30.8133348,8.4766687 30.52,8.07 C30.2266652,7.6633313 29.7666698,7.46 29.14,7.46 C28.406663,7.46 27.5933378,7.959995 26.7,8.96 L26.7,16 L25.06,16 L25.06,6.28 Z" id="path-5"></path>
        <filter x="-6.6%" y="-17.0%" width="118.5%" height="147.6%" filterUnits="objectBoundingBox" id="filter-6">
            <feOffset dx="1" dy="1" in="SourceAlpha" result="shadowOffsetOuter1"></feOffset>
            <feGaussianBlur stdDeviation="1" in="shadowOffsetOuter1" result="shadowBlurOuter1"></feGaussianBlur>
            <feColorMatrix values="0 0 0 0 0   0 0 0 0 0   0 0 0 0 0  0 0 0 0.5 0" type="matrix" in="shadowBlurOuter1"></feColorMatrix>
        </filter>
    </defs>
    <g id="Globe" stroke="none" stroke-width="1" fill="none" fill-rule="evenodd">
        <g id="Desktop" transform="translate(-206.000000, -87.000000)">
            <g id="Happy" transform="translate(206.000000, 89.000000)">
                <g id="HAPPY-HOLIDAYS">
                    <use fill="black" fill-opacity="1" filter="url(#filter-2)" xlink:href="#path-1"></use>
                    <use fill="#FFFFFF" fill-rule="evenodd" xlink:href="#path-1"></use>
                </g>
                <path d="M31.4999249,23.7343995 C31.3593002,24.0156488 31.1249261,24.1797106 30.7968016,24.2265858 L26.0858753,25.1406461 L31.0077386,27.9531394 C31.2889879,28.0937641 31.4647687,28.3164202 31.5350811,28.6211066 C31.6053934,28.925793 31.5702372,29.2187614 31.4296126,29.5000107 C31.2889879,29.7812601 31.0663318,29.9570409 30.7616454,30.0273532 C30.456959,30.0976656 30.1639906,30.0625094 29.8827413,29.9218847 L24.960878,27.0390791 L26.5780616,31.5390684 C26.6718111,31.8671929 26.648374,32.1718794 26.5077493,32.4531287 C26.3671246,32.734378 26.1444686,32.9218779 25.8397821,33.0156273 C25.5350957,33.1093768 25.2421273,33.0859397 24.960878,32.945315 C24.6796287,32.8046903 24.4921287,32.5703163 24.3983793,32.2421917 L22.5702587,25.7031448 L16.9452721,22.4687775 L16.9452721,28.9375121 L21.7265107,33.789063 C21.9608848,34.0234371 22.0663533,34.2929684 22.0429162,34.5976548 C22.0194791,34.9023412 21.8905725,35.1601535 21.6561984,35.3710905 C21.4218243,35.5820275 21.152293,35.687496 20.8476065,35.687496 C20.5429201,35.687496 20.2733888,35.5703084 20.0390147,35.3359343 L16.9452721,31.679693 L16.9452721,37.374992 C16.9452721,37.7031165 16.8398036,37.9726468 16.6288666,38.1835838 C16.4179296,38.3945208 16.1601174,38.4999893 15.8554309,38.4999893 C15.5507445,38.4999893 15.2812132,38.3945208 15.0468391,38.1835838 C14.812465,37.9726468 14.6952775,37.7031165 14.6952775,37.374992 L14.6952775,31.679693 L11.6015348,35.3359343 C11.4140349,35.5703084 11.1562238,35.687496 10.8280992,35.687496 C10.4999746,35.687496 10.2304444,35.5820275 10.0195074,35.3710905 C9.80857036,35.1601535 9.69138279,34.9023412 9.6679457,34.5976548 C9.64450861,34.2929684 9.72653895,34.0234371 9.91403886,33.789063 L14.6952775,28.9375121 L14.6952775,22.4687775 L9.07029087,25.7031448 L7.24217023,32.2421917 C7.14842081,32.5703163 6.9609209,32.8046903 6.67967157,32.945315 C6.39842224,33.0859397 6.11717292,33.1093768 5.83592359,33.0156273 C5.55467426,32.9218779 5.34373726,32.734378 5.20311259,32.4531287 C5.06248793,32.1718794 5.03905084,31.8671929 5.13280026,31.5390684 L6.74998391,27.0390791 L1.75780831,29.9218847 C1.52343423,30.0625094 1.2539029,30.0976656 0.949216487,30.0273532 C0.644530071,29.9570409 0.410154914,29.7812601 0.246093163,29.5000107 C0.082031412,29.2187614 0.0468752459,28.925793 0.140624665,28.6211066 C0.234374084,28.3164202 0.398436908,28.0937641 0.632810991,27.9531394 L5.62498659,25.1406461 L0.914060321,24.2265858 C0.585935745,24.1797106 0.339842582,24.0273679 0.175780831,23.7695556 C0.0117190797,23.5117434 -0.0351561662,23.2304941 0.0351561662,22.9258077 C0.105468499,22.6211212 0.26953025,22.3867461 0.527342493,22.2226843 C0.785154736,22.0586226 1.05468499,22.0000283 1.33593431,22.0469035 L7.94529356,23.7343995 L14.1327788,20.5000322 L7.94529356,17.2656649 L1.33593431,18.9531609 C1.05468499,19.0000361 0.785154736,18.9414418 0.527342493,18.77738 C0.26953025,18.6133183 0.105468499,18.3789431 0.0351561662,18.0742567 C-0.0351561662,17.7695703 0.0117190797,17.488321 0.175780831,17.2305087 C0.339842582,16.9726965 0.585935745,16.8203538 0.914060321,16.7734786 L5.62498659,15.8594183 L0.632810991,13.046925 C0.398436908,12.9063003 0.234374084,12.6836442 0.140624665,12.3789578 C0.0468752459,12.0742714 0.082031412,11.781303 0.246093163,11.5000536 C0.410154914,11.2188043 0.644530071,11.0430235 0.949216487,10.9727112 C1.2539029,10.9023988 1.52343423,10.937555 1.75780831,11.0781797 L6.74998391,13.9609853 L5.13280026,9.46099601 C5.03905084,9.13287143 5.06248793,8.82818501 5.20311259,8.54693568 C5.34373726,8.26568636 5.55467426,8.07818644 5.83592359,7.98443703 C6.11717292,7.89068761 6.39842224,7.91412469 6.67967157,8.05474936 C6.9609209,8.19537402 7.14842081,8.42974811 7.24217023,8.75787268 L9.07029087,15.2969196 L14.6952775,18.5312869 L14.6952775,12.0625523 L9.91403886,7.21100137 C9.72653895,6.97662729 9.64450861,6.70709596 9.6679457,6.40240955 C9.69138279,6.09772313 9.80857036,5.83991089 10.0195074,5.62897389 C10.2304444,5.41803689 10.4999746,5.3125684 10.8280992,5.3125684 C11.1562238,5.3125684 11.4140349,5.42975597 11.6015348,5.66413006 L14.6952775,9.32037134 L14.6952775,3.62507242 C14.6952775,3.29694784 14.812465,3.02741759 15.0468391,2.8164806 C15.2812132,2.6055436 15.5507445,2.5000751 15.8554309,2.5000751 C16.1601174,2.5000751 16.4179296,2.6055436 16.6288666,2.8164806 C16.8398036,3.02741759 16.9452721,3.29694784 16.9452721,3.62507242 L16.9452721,9.32037134 L20.0390147,5.66413006 C20.2733888,5.42975597 20.5429201,5.3125684 20.8476065,5.3125684 C21.152293,5.3125684 21.4218243,5.41803689 21.6561984,5.62897389 C21.8905725,5.83991089 22.0194791,6.09772313 22.0429162,6.40240955 C22.0663533,6.70709596 21.9608848,6.97662729 21.7265107,7.21100137 L16.9452721,12.0625523 L16.9452721,18.5312869 L22.5702587,15.2969196 L24.3983793,8.75787268 C24.4921287,8.42974811 24.6796287,8.19537402 24.960878,8.05474936 C25.2421273,7.91412469 25.5350957,7.89068761 25.8397821,7.98443703 C26.1444686,8.07818644 26.3671246,8.26568636 26.5077493,8.54693568 C26.648374,8.82818501 26.6718111,9.13287143 26.5780616,9.46099601 L24.960878,13.9609853 L29.8827413,11.0781797 C30.1639906,10.937555 30.456959,10.9023988 30.7616454,10.9727112 C31.0663318,11.0430235 31.2889879,11.2188043 31.4296126,11.5000536 C31.5702372,11.781303 31.6053934,12.0742714 31.5350811,12.3789578 C31.4647687,12.6836442 31.2889879,12.9063003 31.0077386,13.046925 L26.0858753,15.8594183 L30.7968016,16.7734786 C31.0780509,16.8203538 31.300707,16.9726965 31.4647687,17.2305087 C31.6288305,17.488321 31.6874248,17.7695703 31.6405496,18.0742567 C31.5936743,18.3789431 31.4413316,18.6133183 31.1835194,18.77738 C30.9257072,18.9414418 30.6327398,19.0000361 30.3046152,18.9531609 L23.695256,17.2656649 L17.5077708,20.5000322 L23.695256,23.7343995 L30.3046152,22.0469035 C30.6327398,22.0000283 30.9257072,22.0586226 31.1835194,22.2226843 C31.4413316,22.3867461 31.5936743,22.6094022 31.6405496,22.8906515 C31.6874248,23.1719008 31.6405496,23.4531501 31.4999249,23.7343995 Z" id="snowflake" fill="#FFFFFF"></path>
                <path d="M609.499925,23.7343995 C609.3593,24.0156488 609.124926,24.1797106 608.796802,24.2265858 L604.085875,25.1406461 L609.007739,27.9531394 C609.288988,28.0937641 609.464769,28.3164202 609.535081,28.6211066 C609.605393,28.925793 609.570237,29.2187614 609.429613,29.5000107 C609.288988,29.7812601 609.066332,29.9570409 608.761645,30.0273532 C608.456959,30.0976656 608.163991,30.0625094 607.882741,29.9218847 L602.960878,27.0390791 L604.578062,31.5390684 C604.671811,31.8671929 604.648374,32.1718794 604.507749,32.4531287 C604.367125,32.734378 604.144469,32.9218779 603.839782,33.0156273 C603.535096,33.1093768 603.242127,33.0859397 602.960878,32.945315 C602.679629,32.8046903 602.492129,32.5703163 602.398379,32.2421917 L600.570259,25.7031448 L594.945272,22.4687775 L594.945272,28.9375121 L599.726511,33.789063 C599.960885,34.0234371 600.066353,34.2929684 600.042916,34.5976548 C600.019479,34.9023412 599.890572,35.1601535 599.656198,35.3710905 C599.421824,35.5820275 599.152293,35.687496 598.847607,35.687496 C598.54292,35.687496 598.273389,35.5703084 598.039015,35.3359343 L594.945272,31.679693 L594.945272,37.374992 C594.945272,37.7031165 594.839804,37.9726468 594.628867,38.1835838 C594.41793,38.3945208 594.160117,38.4999893 593.855431,38.4999893 C593.550745,38.4999893 593.281213,38.3945208 593.046839,38.1835838 C592.812465,37.9726468 592.695277,37.7031165 592.695277,37.374992 L592.695277,31.679693 L589.601535,35.3359343 C589.414035,35.5703084 589.156224,35.687496 588.828099,35.687496 C588.499975,35.687496 588.230444,35.5820275 588.019507,35.3710905 C587.80857,35.1601535 587.691383,34.9023412 587.667946,34.5976548 C587.644509,34.2929684 587.726539,34.0234371 587.914039,33.789063 L592.695277,28.9375121 L592.695277,22.4687775 L587.070291,25.7031448 L585.24217,32.2421917 C585.148421,32.5703163 584.960921,32.8046903 584.679672,32.945315 C584.398422,33.0859397 584.117173,33.1093768 583.835924,33.0156273 C583.554674,32.9218779 583.343737,32.734378 583.203113,32.4531287 C583.062488,32.1718794 583.039051,31.8671929 583.1328,31.5390684 L584.749984,27.0390791 L579.757808,29.9218847 C579.523434,30.0625094 579.253903,30.0976656 578.949216,30.0273532 C578.64453,29.9570409 578.410155,29.7812601 578.246093,29.5000107 C578.082031,29.2187614 578.046875,28.925793 578.140625,28.6211066 C578.234374,28.3164202 578.398437,28.0937641 578.632811,27.9531394 L583.624987,25.1406461 L578.91406,24.2265858 C578.585936,24.1797106 578.339843,24.0273679 578.175781,23.7695556 C578.011719,23.5117434 577.964844,23.2304941 578.035156,22.9258077 C578.105468,22.6211212 578.26953,22.3867461 578.527342,22.2226843 C578.785155,22.0586226 579.054685,22.0000283 579.335934,22.0469035 L585.945294,23.7343995 L592.132779,20.5000322 L585.945294,17.2656649 L579.335934,18.9531609 C579.054685,19.0000361 578.785155,18.9414418 578.527342,18.77738 C578.26953,18.6133183 578.105468,18.3789431 578.035156,18.0742567 C577.964844,17.7695703 578.011719,17.488321 578.175781,17.2305087 C578.339843,16.9726965 578.585936,16.8203538 578.91406,16.7734786 L583.624987,15.8594183 L578.632811,13.046925 C578.398437,12.9063003 578.234374,12.6836442 578.140625,12.3789578 C578.046875,12.0742714 578.082031,11.781303 578.246093,11.5000536 C578.410155,11.2188043 578.64453,11.0430235 578.949216,10.9727112 C579.253903,10.9023988 579.523434,10.937555 579.757808,11.0781797 L584.749984,13.9609853 L583.1328,9.46099601 C583.039051,9.13287143 583.062488,8.82818501 583.203113,8.54693568 C583.343737,8.26568636 583.554674,8.07818644 583.835924,7.98443703 C584.117173,7.89068761 584.398422,7.91412469 584.679672,8.05474936 C584.960921,8.19537402 585.148421,8.42974811 585.24217,8.75787268 L587.070291,15.2969196 L592.695277,18.5312869 L592.695277,12.0625523 L587.914039,7.21100137 C587.726539,6.97662729 587.644509,6.70709596 587.667946,6.40240955 C587.691383,6.09772313 587.80857,5.83991089 588.019507,5.62897389 C588.230444,5.41803689 588.499975,5.3125684 588.828099,5.3125684 C589.156224,5.3125684 589.414035,5.42975597 589.601535,5.66413006 L592.695277,9.32037134 L592.695277,3.62507242 C592.695277,3.29694784 592.812465,3.02741759 593.046839,2.8164806 C593.281213,2.6055436 593.550745,2.5000751 593.855431,2.5000751 C594.160117,2.5000751 594.41793,2.6055436 594.628867,2.8164806 C594.839804,3.02741759 594.945272,3.29694784 594.945272,3.62507242 L594.945272,9.32037134 L598.039015,5.66413006 C598.273389,5.42975597 598.54292,5.3125684 598.847607,5.3125684 C599.152293,5.3125684 599.421824,5.41803689 599.656198,5.62897389 C599.890572,5.83991089 600.019479,6.09772313 600.042916,6.40240955 C600.066353,6.70709596 599.960885,6.97662729 599.726511,7.21100137 L594.945272,12.0625523 L594.945272,18.5312869 L600.570259,15.2969196 L602.398379,8.75787268 C602.492129,8.42974811 602.679629,8.19537402 602.960878,8.05474936 C603.242127,7.91412469 603.535096,7.89068761 603.839782,7.98443703 C604.144469,8.07818644 604.367125,8.26568636 604.507749,8.54693568 C604.648374,8.82818501 604.671811,9.13287143 604.578062,9.46099601 L602.960878,13.9609853 L607.882741,11.0781797 C608.163991,10.937555 608.456959,10.9023988 608.761645,10.9727112 C609.066332,11.0430235 609.288988,11.2188043 609.429613,11.5000536 C609.570237,11.781303 609.605393,12.0742714 609.535081,12.3789578 C609.464769,12.6836442 609.288988,12.9063003 609.007739,13.046925 L604.085875,15.8594183 L608.796802,16.7734786 C609.078051,16.8203538 609.300707,16.9726965 609.464769,17.2305087 C609.62883,17.488321 609.687425,17.7695703 609.64055,18.0742567 C609.593674,18.3789431 609.441332,18.6133183 609.183519,18.77738 C608.925707,18.9414418 608.63274,19.0000361 608.304615,18.9531609 L601.695256,17.2656649 L595.507771,20.5000322 L601.695256,23.7343995 L608.304615,22.0469035 C608.63274,22.0000283 608.925707,22.0586226 609.183519,22.2226843 C609.441332,22.3867461 609.593674,22.6094022 609.64055,22.8906515 C609.687425,23.1719008 609.64055,23.4531501 609.499925,23.7343995 Z" id="snowflake" fill="#FFFFFF"></path>
                <g id="from-TY" transform="translate(213.000000, 62.000000)">
                    <g id="TRACKUITY">
                        <use fill="black" fill-opacity="1" filter="url(#filter-4)" xlink:href="#path-3"></use>
                        <use fill="#FFFFFF" fill-rule="evenodd" xlink:href="#path-3"></use>
                    </g>
                    <g id="from">
                        <use fill="black" fill-opacity="1" filter="url(#filter-6)" xlink:href="#path-5"></use>
                        <use fill="#FFFFFF" fill-rule="evenodd" xlink:href="#path-5"></use>
                    </g>
                </g>
            </g>
        </g>
    </g>
</svg>