<?xml version="1.0" encoding="UTF-8"?>
<svg width="610px" height="83px" viewBox="0 0 610 83" version="1.1" xmlns="http://www.w3.org/2000/svg" xmlns:xlink="http://www.w3.org/1999/xlink">
    <!-- Generator: Sketch 52.2 (67145) - http://www.bohemiancoding.com/sketch -->
    <title>Happy</title>
    <desc>Created with Sketch.</desc>
    <defs>
        <path d="M68.62,19.88 L77.44,19.88 L77.44,34.94 L90.94,34.94 L90.94,19.88 L99.82,19.88 L99.82,59 L90.94,59 L90.94,42.68 L77.44,42.68 L77.44,59 L68.62,59 L68.62,19.88 Z M127.62,42.8 L126.72,39.2 C126.159997,37.2399902 125.620003,35.160011 125.1,32.96 C124.579997,30.759989 124.060003,28.6400102 123.54,26.6 L123.3,26.6 C122.819998,28.6800104 122.330003,30.8099891 121.83,32.99 C121.329997,35.1700109 120.800003,37.2399902 120.24,39.2 L119.28,42.8 L127.62,42.8 Z M129.42,49.7 L117.48,49.7 L115.08,59 L106.08,59 L118.32,19.88 L128.94,19.88 L141.18,59 L131.82,59 L129.42,49.7 Z M147.44,19.88 L161.72,19.88 C163.840011,19.88 165.829991,20.0899979 167.69,20.51 C169.550009,20.9300021 171.169993,21.6299951 172.55,22.61 C173.930007,23.5900049 175.019996,24.8899919 175.82,26.51 C176.620004,28.1300081 177.02,30.1199882 177.02,32.48 C177.02,34.7600114 176.610004,36.7399916 175.79,38.42 C174.969996,40.1000084 173.860007,41.4799946 172.46,42.56 C171.059993,43.6400054 169.440009,44.4399974 167.6,44.96 C165.759991,45.4800026 163.80001,45.74 161.72,45.74 L156.26,45.74 L156.26,59 L147.44,59 L147.44,19.88 Z M161.18,38.72 C165.980024,38.72 168.38,36.6400208 168.38,32.48 C168.38,30.4399898 167.770006,29.0000042 166.55,28.16 C165.329994,27.3199958 163.540012,26.9 161.18,26.9 L156.26,26.9 L156.26,38.72 L161.18,38.72 Z M185.8,19.88 L200.08,19.88 C202.200011,19.88 204.189991,20.0899979 206.05,20.51 C207.910009,20.9300021 209.529993,21.6299951 210.91,22.61 C212.290007,23.5900049 213.379996,24.8899919 214.18,26.51 C214.980004,28.1300081 215.38,30.1199882 215.38,32.48 C215.38,34.7600114 214.970004,36.7399916 214.15,38.42 C213.329996,40.1000084 212.220007,41.4799946 210.82,42.56 C209.419993,43.6400054 207.800009,44.4399974 205.96,44.96 C204.119991,45.4800026 202.16001,45.74 200.08,45.74 L194.62,45.74 L194.62,59 L185.8,59 L185.8,19.88 Z M199.54,38.72 C204.340024,38.72 206.74,36.6400208 206.74,32.48 C206.74,30.4399898 206.130006,29.0000042 204.91,28.16 C203.689994,27.3199958 201.900012,26.9 199.54,26.9 L194.62,26.9 L194.62,38.72 L199.54,38.72 Z M230.28,45.08 L218.46,19.88 L227.94,19.88 L231.42,28.88 C231.980003,30.3600074 232.509997,31.7899931 233.01,33.17 C233.510002,34.5500069 234.039997,35.9999924 234.6,37.52 L234.84,37.52 C235.400003,35.9999924 235.949997,34.5500069 236.49,33.17 C237.030003,31.7899931 237.579997,30.3600074 238.14,28.88 L241.68,19.88 L250.92,19.88 L239.1,45.08 L239.1,59 L230.28,59 L230.28,45.08 Z M271.54,19.88 L280.36,19.88 L280.36,34.94 L293.86,34.94 L293.86,19.88 L302.74,19.88 L302.74,59 L293.86,59 L293.86,42.68 L280.36,42.68 L280.36,59 L271.54,59 L271.54,19.88 Z M329.88,59.72 C327.239987,59.72 324.830011,59.2500047 322.65,58.31 C320.469989,57.3699953 318.600008,56.0200088 317.04,54.26 C315.479992,52.4999912 314.270004,50.3600126 313.41,47.84 C312.549996,45.3199874 312.12,42.460016 312.12,39.26 C312.12,36.059984 312.549996,33.2100125 313.41,30.71 C314.270004,28.2099875 315.479992,26.1100085 317.04,24.41 C318.600008,22.7099915 320.469989,21.4100045 322.65,20.51 C324.830011,19.6099955 327.239987,19.16 329.88,19.16 C332.520013,19.16 334.929989,19.6099955 337.11,20.51 C339.290011,21.4100045 341.159992,22.7199914 342.72,24.44 C344.280008,26.1600086 345.489996,28.2699875 346.35,30.77 C347.210004,33.2700125 347.64,36.0999842 347.64,39.26 C347.64,42.460016 347.210004,45.3199874 346.35,47.84 C345.489996,50.3600126 344.280008,52.4999912 342.72,54.26 C341.159992,56.0200088 339.290011,57.3699953 337.11,58.31 C334.929989,59.2500047 332.520013,59.72 329.88,59.72 Z M329.88,52.1 C332.560013,52.1 334.679992,50.9500115 336.24,48.65 C337.800008,46.3499885 338.58,43.2200198 338.58,39.26 C338.58,35.3399804 337.800008,32.280011 336.24,30.08 C334.679992,27.879989 332.560013,26.78 329.88,26.78 C327.199987,26.78 325.080008,27.879989 323.52,30.08 C321.959992,32.280011 321.18,35.3399804 321.18,39.26 C321.18,43.2200198 321.959992,46.3499885 323.52,48.65 C325.080008,50.9500115 327.199987,52.1 329.88,52.1 Z M357.02,19.88 L365.84,19.88 L365.84,51.56 L381.32,51.56 L381.32,59 L357.02,59 L357.02,19.88 Z M390.1,19.88 L398.92,19.88 L398.92,59 L390.1,59 L390.1,19.88 Z M410.16,19.88 L421.2,19.88 C424.200015,19.88 426.899988,20.2599962 429.3,21.02 C431.700012,21.7800038 433.759991,22.9499921 435.48,24.53 C437.200009,26.1100079 438.519995,28.1199878 439.44,30.56 C440.360005,33.0000122 440.82,35.8999832 440.82,39.26 C440.82,42.6200168 440.360005,45.5399876 439.44,48.02 C438.519995,50.5000124 437.220008,52.5499919 435.54,54.17 C433.859992,55.7900081 431.850012,56.999996 429.51,57.8 C427.169988,58.600004 424.560014,59 421.68,59 L410.16,59 L410.16,19.88 Z M420.66,51.86 C422.340008,51.86 423.859993,51.6400022 425.22,51.2 C426.580007,50.7599978 427.739995,50.0500049 428.7,49.07 C429.660005,48.0899951 430.409997,46.800008 430.95,45.2 C431.490003,43.599992 431.76,41.6200118 431.76,39.26 C431.76,36.9399884 431.490003,34.9900079 430.95,33.41 C430.409997,31.8299921 429.660005,30.5700047 428.7,29.63 C427.739995,28.6899953 426.580007,28.020002 425.22,27.62 C423.859993,27.219998 422.340008,27.02 420.66,27.02 L418.98,27.02 L418.98,51.86 L420.66,51.86 Z M466.22,42.8 L465.32,39.2 C464.759997,37.2399902 464.220003,35.160011 463.7,32.96 C463.179997,30.759989 462.660003,28.6400102 462.14,26.6 L461.9,26.6 C461.419998,28.6800104 460.930002,30.8099891 460.43,32.99 C459.929997,35.1700109 459.400003,37.2399902 458.84,39.2 L457.88,42.8 L466.22,42.8 Z M468.02,49.7 L456.08,49.7 L453.68,59 L444.68,59 L456.92,19.88 L467.54,19.88 L479.78,59 L470.42,59 L468.02,49.7 Z M491.68,45.08 L479.86,19.88 L489.34,19.88 L492.82,28.88 C493.380003,30.3600074 493.909997,31.7899931 494.41,33.17 C494.910002,34.5500069 495.439997,35.9999924 496,37.52 L496.24,37.52 C496.800003,35.9999924 497.349997,34.5500069 497.89,33.17 C498.430003,31.7899931 498.979997,30.3600074 499.54,28.88 L503.08,19.88 L512.32,19.88 L500.5,45.08 L500.5,59 L491.68,59 L491.68,45.08 Z M520.98,48.02 C522.380007,49.220006 523.929991,50.1999962 525.63,50.96 C527.330008,51.7200038 528.999992,52.1 530.64,52.1 C532.480009,52.1 533.849995,51.7600034 534.75,51.08 C535.650005,50.3999966 536.1,49.4800058 536.1,48.32 C536.1,47.719997 535.970001,47.2000022 535.71,46.76 C535.449999,46.3199978 535.070002,45.9300017 534.57,45.59 C534.069997,45.2499983 533.470003,44.9300015 532.77,44.63 L530.46,43.64 L525.36,41.48 C524.359995,41.079998 523.390005,40.5600032 522.45,39.92 C521.509995,39.2799968 520.670004,38.5300043 519.93,37.67 C519.189996,36.8099957 518.600002,35.8100057 518.16,34.67 C517.719998,33.5299943 517.5,32.2400072 517.5,30.8 C517.5,29.199992 517.839997,27.6900071 518.52,26.27 C519.200003,24.8499929 520.159994,23.6100053 521.4,22.55 C522.640006,21.4899947 524.109991,20.660003 525.81,20.06 C527.510008,19.459997 529.37999,19.16 531.42,19.16 C533.700011,19.16 535.949989,19.5999956 538.17,20.48 C540.390011,21.3600044 542.339992,22.6399916 544.02,24.32 L539.52,29.9 C538.239994,28.899995 536.960006,28.1300027 535.68,27.59 C534.399994,27.0499973 532.980008,26.78 531.42,26.78 C529.899992,26.78 528.690004,27.0899969 527.79,27.71 C526.889995,28.3300031 526.44,29.1999944 526.44,30.32 C526.44,30.920003 526.589998,31.4299979 526.89,31.85 C527.190001,32.2700021 527.609997,32.6499983 528.15,32.99 C528.690003,33.3300017 529.319996,33.6499985 530.04,33.95 C530.760004,34.2500015 531.539996,34.5799982 532.38,34.94 L537.42,36.98 C539.820012,37.9400048 541.709993,39.2599916 543.09,40.94 C544.470007,42.6200084 545.16,44.8399862 545.16,47.6 C545.16,49.2400082 544.830003,50.7899927 544.17,52.25 C543.509997,53.7100073 542.550006,54.9899945 541.29,56.09 C540.029994,57.1900055 538.480009,58.0699967 536.64,58.73 C534.799991,59.3900033 532.720012,59.72 530.4,59.72 C527.839987,59.72 525.290013,59.2500047 522.75,58.31 C520.209987,57.3699953 517.94001,55.9600094 515.94,54.08 L520.98,48.02 Z" id="path-1"></path>
        <filter x="-1.0%" y="-12.3%" width="102.9%" height="134.5%" filterUnits="objectBoundingBox" id="filter-2">
            <feOffset dx="2" dy="2" in="SourceAlpha" result="shadowOffsetOuter1"></feOffset>
            <feGaussianBlur stdDeviation="2" in="shadowOffsetOuter1" result="shadowBlurOuter1"></feGaussianBlur>
            <feColorMatrix values="0 0 0 0 0.816203773   0 0 0 0 0.00751322834   0 0 0 0 0.106696017  0 0 0 1 0" type="matrix" in="shadowBlurOuter1"></feColorMatrix>
        </filter>
        <path d="M66.6633945,8.21923828 L60.9583164,8.21923828 L60.9583164,20 L56.2752109,20 L56.2752109,8.21923828 L50.5701328,8.21923828 L50.5701328,4.43457031 L66.6633945,4.43457031 L66.6633945,8.21923828 Z M84.474918,20 L79.4324375,20 L78.2083164,17.2373047 C77.7590954,16.2265574 77.3548026,15.4872256 76.9954258,15.0192871 C76.636049,14.5513486 76.2860362,14.2518724 75.945377,14.1208496 C75.6047177,13.9898268 75.1648621,13.9243164 74.6257969,13.9243164 L74.0979648,13.9243164 L74.0979648,20 L69.4036289,20 L69.4036289,4.43457031 L77.3884922,4.43457031 C78.676259,4.43457031 79.7319125,4.69661196 80.5554844,5.22070312 C81.3790562,5.74479429 81.9723934,6.38118115 82.3355137,7.12988281 C82.698634,7.87858447 82.8801914,8.58984038 82.8801914,9.26367188 C82.8801914,10.0498086 82.7285816,10.7142714 82.4253574,11.2570801 C82.1221332,11.7998888 81.8020681,12.194823 81.4651523,12.4418945 C81.1282366,12.6889661 80.7501479,12.9248036 80.330875,13.1494141 C80.8325051,13.4414077 81.2461566,13.787677 81.5718418,14.1882324 C81.897527,14.5887878 82.3411261,15.3992452 82.9026523,16.6196289 L84.474918,20 Z M78.0960117,9.35351562 C78.0960117,8.63476203 77.8601742,8.13313944 77.3884922,7.84863281 C76.9168101,7.56412618 76.1494025,7.421875 75.0862461,7.421875 L74.0979648,7.421875 L74.0979648,11.1728516 L75.108707,11.1728516 C76.2542206,11.1728516 77.0384738,11.0474459 77.4614902,10.7966309 C77.8845067,10.5458158 78.0960117,10.0647822 78.0960117,9.35351562 Z M103.70148,20 L98.8948398,20 L97.6257969,16.8442383 L90.8650547,16.8442383 L89.5735508,20 L84.7669102,20 L91.6511875,4.43457031 L96.8396641,4.43457031 L103.70148,20 Z M96.5476719,14.1376953 L94.2678867,8.45507812 L91.9656406,14.1376953 L96.5476719,14.1376953 Z M119.379215,18.8320312 C118.735331,19.168947 118.076484,19.4384756 117.402652,19.640625 C116.728821,19.8427744 116.049384,19.9868974 115.364322,20.072998 C114.67926,20.1590987 113.969876,20.2021484 113.236148,20.2021484 C111.880998,20.2021484 110.666248,20.0149758 109.591861,19.640625 C108.517474,19.2662742 107.585355,18.714115 106.795475,17.9841309 C106.005594,17.2541467 105.414129,16.4006397 105.021061,15.423584 C104.627992,14.4465283 104.431461,13.3740293 104.431461,12.2060547 C104.431461,10.8658787 104.663555,9.69230647 105.12775,8.68530273 C105.591945,7.678299 106.241434,6.84163745 107.076236,6.17529297 C107.911039,5.50894849 108.861876,5.01668453 109.928775,4.69848633 C110.995675,4.38028812 112.120583,4.22119141 113.303531,4.22119141 C115.070467,4.22119141 117.073214,4.61425388 119.311832,5.40039062 L119.311832,9.53320312 C118.540669,9.05403406 117.778877,8.65535641 117.026432,8.3371582 C116.273986,8.01896 115.38866,7.85986328 114.370426,7.85986328 C113.464497,7.85986328 112.618477,8.03954898 111.83234,8.39892578 C111.046203,8.75830258 110.41356,9.27115552 109.934391,9.9375 C109.455222,10.6038445 109.215641,11.3824825 109.215641,12.2734375 C109.215641,13.0595742 109.425274,13.7801888 109.844547,14.4353027 C110.26382,15.0904167 110.845927,15.6107565 111.590885,15.9963379 C112.335843,16.3819192 113.176248,16.574707 114.112125,16.574707 C114.868314,16.574707 115.583313,16.4829925 116.257145,16.2995605 C116.930976,16.1161286 117.498109,15.9121105 117.958561,15.6875 C118.419012,15.4628895 118.892559,15.1971044 119.379215,14.8901367 L119.379215,18.8320312 Z M138.909,20 L133.181461,20 L127.229313,12.7114258 L127.229313,20 L122.534977,20 L122.534977,4.43457031 L127.229313,4.43457031 L127.229313,11.3974609 L132.867008,4.43457031 L137.965641,4.43457031 L132.170719,11.7231445 L138.909,20 Z M152.385563,4.31103516 L153.598453,4.31103516 L153.598453,12.8686523 C153.598453,15.2120885 152.98827,17.0201759 151.767887,18.2929688 C150.547503,19.5657616 148.967766,20.2021484 147.028629,20.2021484 C145.096979,20.2021484 143.520985,19.5732485 142.300602,18.3154297 C141.080218,17.0576109 140.470035,15.3356229 140.470035,13.1494141 L140.470035,4.31103516 L141.694156,4.31103516 L141.694156,13.1044922 C141.694156,14.9762463 142.190164,16.4399361 143.182193,17.4956055 C144.174223,18.5512748 145.456355,19.0791016 147.028629,19.0791016 C148.615876,19.0791016 149.905496,18.5456596 150.897525,17.4787598 C151.889555,16.4118599 152.385563,14.8976335 152.385563,12.9360352 L152.385563,4.31103516 Z M158.06818,4.31103516 L158.06818,20 L156.855289,20 L156.855289,4.31103516 L158.06818,4.31103516 Z M172.92609,4.31103516 L172.92609,5.32177734 L167.041324,5.32177734 L167.041324,20 L165.817203,20 L165.817203,5.32177734 L159.932438,5.32177734 L159.932438,4.31103516 L172.92609,4.31103516 Z M186.436344,4.31103516 L180.338199,11.5771484 L180.338199,20 L179.125309,20 L179.125309,11.5771484 L173.027164,4.31103516 L174.498355,4.31103516 L179.742984,10.5214844 L184.965152,4.31103516 L186.436344,4.31103516 Z" id="path-3"></path>
        <filter x="-1.8%" y="-15.6%" width="105.2%" height="143.8%" filterUnits="objectBoundingBox" id="filter-4">
            <feOffset dx="1" dy="1" in="SourceAlpha" result="shadowOffsetOuter1"></feOffset>
            <feGaussianBlur stdDeviation="1" in="shadowOffsetOuter1" result="shadowBlurOuter1"></feGaussianBlur>
            <feColorMatrix values="0 0 0 0 0.262745098   0 0 0 0 0.250980392   0 0 0 0 0.309803922  0 0 0 1 0" type="matrix" in="shadowBlurOuter1"></feColorMatrix>
        </filter>
        <path d="M6.02,7.1 C5.6599982,6.9399992 5.2933352,6.86 4.92,6.86 C4.0133288,6.86 3.56,7.4866604 3.56,8.74 L3.56,10.28 L5.62,10.28 L5.62,11.62 L3.56,11.62 L3.56,20 L1.92,20 L1.92,11.62 L0.6,11.62 L0.6,10.38 L1.92,10.28 L1.92,8.74 C1.92,7.739995 2.1499977,6.9533362 2.61,6.38 C3.0700023,5.8066638 3.7866618,5.52 4.76,5.52 C5.0666682,5.52 5.3566653,5.5499997 5.63,5.61 C5.9033347,5.6700003 6.1533322,5.7466662 6.38,5.84 L6.02,7.1 Z M7.48,10.28 L8.84,10.28 L8.98,12.04 L9.04,12.04 C9.373335,11.4266636 9.7766643,10.9400018 10.25,10.58 C10.7233357,10.2199982 11.2399972,10.04 11.8,10.04 C12.1866686,10.04 12.5333318,10.106666 12.84,10.24 L12.52,11.68 C12.3599992,11.6266664 12.213334,11.5866668 12.08,11.56 C11.946666,11.5333332 11.780001,11.52 11.58,11.52 C11.1666646,11.52 10.7366689,11.686665 10.29,12.02 C9.8433311,12.353335 9.453335,12.9333292 9.12,13.76 L9.12,20 L7.48,20 L7.48,10.28 Z M13.5,15.16 C13.5,14.3466626 13.6233321,13.6233365 13.87,12.99 C14.1166679,12.3566635 14.4466646,11.8200022 14.86,11.38 C15.2733354,10.9399978 15.7499973,10.6066678 16.29,10.38 C16.8300027,10.1533322 17.399997,10.04 18,10.04 C18.600003,10.04 19.1699973,10.1533322 19.71,10.38 C20.2500027,10.6066678 20.7266646,10.9399978 21.14,11.38 C21.5533354,11.8200022 21.8833321,12.3566635 22.13,12.99 C22.3766679,13.6233365 22.5,14.3466626 22.5,15.16 C22.5,15.960004 22.3766679,16.6766635 22.13,17.31 C21.8833321,17.9433365 21.5533354,18.4766645 21.14,18.91 C20.7266646,19.3433355 20.2500027,19.6733322 19.71,19.9 C19.1699973,20.1266678 18.600003,20.24 18,20.24 C17.399997,20.24 16.8300027,20.1266678 16.29,19.9 C15.7499973,19.6733322 15.2733354,19.3433355 14.86,18.91 C14.4466646,18.4766645 14.1166679,17.9433365 13.87,17.31 C13.6233321,16.6766635 13.5,15.960004 13.5,15.16 Z M15.2,15.16 C15.2,15.7200028 15.266666,16.2266644 15.4,16.68 C15.533334,17.1333356 15.7233321,17.5233317 15.97,17.85 C16.2166679,18.1766683 16.5133316,18.4299991 16.86,18.61 C17.2066684,18.7900009 17.5866646,18.88 18,18.88 C18.4133354,18.88 18.7933316,18.7900009 19.14,18.61 C19.4866684,18.4299991 19.7833321,18.1766683 20.03,17.85 C20.2766679,17.5233317 20.466666,17.1333356 20.6,16.68 C20.733334,16.2266644 20.8,15.7200028 20.8,15.16 C20.8,14.5999972 20.733334,14.0900023 20.6,13.63 C20.466666,13.1699977 20.2766679,12.773335 20.03,12.44 C19.7833321,12.106665 19.4866684,11.8500009 19.14,11.67 C18.7933316,11.4899991 18.4133354,11.4 18,11.4 C17.5866646,11.4 17.2066684,11.4899991 16.86,11.67 C16.5133316,11.8500009 16.2166679,12.106665 15.97,12.44 C15.7233321,12.773335 15.533334,13.1699977 15.4,13.63 C15.266666,14.0900023 15.2,14.5999972 15.2,15.16 Z M25.06,10.28 L26.42,10.28 L26.56,11.68 L26.62,11.68 C27.0466688,11.213331 27.5099975,10.8233349 28.01,10.51 C28.5100025,10.1966651 29.0533304,10.04 29.64,10.04 C30.3866704,10.04 30.9699979,10.2033317 31.39,10.53 C31.8100021,10.8566683 32.119999,11.3133304 32.32,11.9 C32.8266692,11.3399972 33.3366641,10.8900017 33.85,10.55 C34.3633359,10.2099983 34.919997,10.04 35.52,10.04 C36.520005,10.04 37.2633309,10.3599968 37.75,11 C38.2366691,11.6400032 38.48,12.5866604 38.48,13.84 L38.48,20 L36.84,20 L36.84,14.06 C36.84,13.1399954 36.6933348,12.4766687 36.4,12.07 C36.1066652,11.6633313 35.6533364,11.46 35.04,11.46 C34.306663,11.46 33.4933378,11.959995 32.6,12.96 L32.6,20 L30.96,20 L30.96,14.06 C30.96,13.1399954 30.8133348,12.4766687 30.52,12.07 C30.2266652,11.6633313 29.7666698,11.46 29.14,11.46 C28.406663,11.46 27.5933378,11.959995 26.7,12.96 L26.7,20 L25.06,20 L25.06,10.28 Z" id="path-5"></path>
        <filter x="-6.6%" y="-17.0%" width="118.5%" height="147.6%" filterUnits="objectBoundingBox" id="filter-6">
            <feOffset dx="1" dy="1" in="SourceAlpha" result="shadowOffsetOuter1"></feOffset>
            <feGaussianBlur stdDeviation="1" in="shadowOffsetOuter1" result="shadowBlurOuter1"></feGaussianBlur>
            <feColorMatrix values="0 0 0 0 0.262745098   0 0 0 0 0.250980392   0 0 0 0 0.309803922  0 0 0 0.8 0" type="matrix" in="shadowBlurOuter1"></feColorMatrix>
        </filter>
    </defs>
    <g id="Globe" stroke="none" stroke-width="1" fill="none" fill-rule="evenodd">
        <g id="Desktop" transform="translate(-206.000000, -87.000000)">
            <g id="Happy" transform="translate(206.000000, 70.000000)">
                <g id="HAPPY-HOLIDAYS">
                    <use fill="black" fill-opacity="1" filter="url(#filter-2)" xlink:href="#path-1"></use>
                    <use fill="#FFFFFF" fill-rule="evenodd" xlink:href="#path-1"></use>
                </g>
                <path d="M31.4999249,42.7343995 C31.3593002,43.0156488 31.1249261,43.1797106 30.7968016,43.2265858 L26.0858753,44.1406461 L31.0077386,46.9531394 C31.2889879,47.0937641 31.4647687,47.3164202 31.5350811,47.6211066 C31.6053934,47.925793 31.5702372,48.2187614 31.4296126,48.5000107 C31.2889879,48.7812601 31.0663318,48.9570409 30.7616454,49.0273532 C30.456959,49.0976656 30.1639906,49.0625094 29.8827413,48.9218847 L24.960878,46.0390791 L26.5780616,50.5390684 C26.6718111,50.8671929 26.648374,51.1718794 26.5077493,51.4531287 C26.3671246,51.734378 26.1444686,51.9218779 25.8397821,52.0156273 C25.5350957,52.1093768 25.2421273,52.0859397 24.960878,51.945315 C24.6796287,51.8046903 24.4921287,51.5703163 24.3983793,51.2421917 L22.5702587,44.7031448 L16.9452721,41.4687775 L16.9452721,47.9375121 L21.7265107,52.789063 C21.9608848,53.0234371 22.0663533,53.2929684 22.0429162,53.5976548 C22.0194791,53.9023412 21.8905725,54.1601535 21.6561984,54.3710905 C21.4218243,54.5820275 21.152293,54.687496 20.8476065,54.687496 C20.5429201,54.687496 20.2733888,54.5703084 20.0390147,54.3359343 L16.9452721,50.679693 L16.9452721,56.374992 C16.9452721,56.7031165 16.8398036,56.9726468 16.6288666,57.1835838 C16.4179296,57.3945208 16.1601174,57.4999893 15.8554309,57.4999893 C15.5507445,57.4999893 15.2812132,57.3945208 15.0468391,57.1835838 C14.812465,56.9726468 14.6952775,56.7031165 14.6952775,56.374992 L14.6952775,50.679693 L11.6015348,54.3359343 C11.4140349,54.5703084 11.1562238,54.687496 10.8280992,54.687496 C10.4999746,54.687496 10.2304444,54.5820275 10.0195074,54.3710905 C9.80857036,54.1601535 9.69138279,53.9023412 9.6679457,53.5976548 C9.64450861,53.2929684 9.72653895,53.0234371 9.91403886,52.789063 L14.6952775,47.9375121 L14.6952775,41.4687775 L9.07029087,44.7031448 L7.24217023,51.2421917 C7.14842081,51.5703163 6.9609209,51.8046903 6.67967157,51.945315 C6.39842224,52.0859397 6.11717292,52.1093768 5.83592359,52.0156273 C5.55467426,51.9218779 5.34373726,51.734378 5.20311259,51.4531287 C5.06248793,51.1718794 5.03905084,50.8671929 5.13280026,50.5390684 L6.74998391,46.0390791 L1.75780831,48.9218847 C1.52343423,49.0625094 1.2539029,49.0976656 0.949216487,49.0273532 C0.644530071,48.9570409 0.410154914,48.7812601 0.246093163,48.5000107 C0.082031412,48.2187614 0.0468752459,47.925793 0.140624665,47.6211066 C0.234374084,47.3164202 0.398436908,47.0937641 0.632810991,46.9531394 L5.62498659,44.1406461 L0.914060321,43.2265858 C0.585935745,43.1797106 0.339842582,43.0273679 0.175780831,42.7695556 C0.0117190797,42.5117434 -0.0351561662,42.2304941 0.0351561662,41.9258077 C0.105468499,41.6211212 0.26953025,41.3867461 0.527342493,41.2226843 C0.785154736,41.0586226 1.05468499,41.0000283 1.33593431,41.0469035 L7.94529356,42.7343995 L14.1327788,39.5000322 L7.94529356,36.2656649 L1.33593431,37.9531609 C1.05468499,38.0000361 0.785154736,37.9414418 0.527342493,37.77738 C0.26953025,37.6133183 0.105468499,37.3789431 0.0351561662,37.0742567 C-0.0351561662,36.7695703 0.0117190797,36.488321 0.175780831,36.2305087 C0.339842582,35.9726965 0.585935745,35.8203538 0.914060321,35.7734786 L5.62498659,34.8594183 L0.632810991,32.046925 C0.398436908,31.9063003 0.234374084,31.6836442 0.140624665,31.3789578 C0.0468752459,31.0742714 0.082031412,30.781303 0.246093163,30.5000536 C0.410154914,30.2188043 0.644530071,30.0430235 0.949216487,29.9727112 C1.2539029,29.9023988 1.52343423,29.937555 1.75780831,30.0781797 L6.74998391,32.9609853 L5.13280026,28.460996 C5.03905084,28.1328714 5.06248793,27.828185 5.20311259,27.5469357 C5.34373726,27.2656864 5.55467426,27.0781864 5.83592359,26.984437 C6.11717292,26.8906876 6.39842224,26.9141247 6.67967157,27.0547494 C6.9609209,27.195374 7.14842081,27.4297481 7.24217023,27.7578727 L9.07029087,34.2969196 L14.6952775,37.5312869 L14.6952775,31.0625523 L9.91403886,26.2110014 C9.72653895,25.9766273 9.64450861,25.707096 9.6679457,25.4024095 C9.69138279,25.0977231 9.80857036,24.8399109 10.0195074,24.6289739 C10.2304444,24.4180369 10.4999746,24.3125684 10.8280992,24.3125684 C11.1562238,24.3125684 11.4140349,24.429756 11.6015348,24.6641301 L14.6952775,28.3203713 L14.6952775,22.6250724 C14.6952775,22.2969478 14.812465,22.0274176 15.0468391,21.8164806 C15.2812132,21.6055436 15.5507445,21.5000751 15.8554309,21.5000751 C16.1601174,21.5000751 16.4179296,21.6055436 16.6288666,21.8164806 C16.8398036,22.0274176 16.9452721,22.2969478 16.9452721,22.6250724 L16.9452721,28.3203713 L20.0390147,24.6641301 C20.2733888,24.429756 20.5429201,24.3125684 20.8476065,24.3125684 C21.152293,24.3125684 21.4218243,24.4180369 21.6561984,24.6289739 C21.8905725,24.8399109 22.0194791,25.0977231 22.0429162,25.4024095 C22.0663533,25.707096 21.9608848,25.9766273 21.7265107,26.2110014 L16.9452721,31.0625523 L16.9452721,37.5312869 L22.5702587,34.2969196 L24.3983793,27.7578727 C24.4921287,27.4297481 24.6796287,27.195374 24.960878,27.0547494 C25.2421273,26.9141247 25.5350957,26.8906876 25.8397821,26.984437 C26.1444686,27.0781864 26.3671246,27.2656864 26.5077493,27.5469357 C26.648374,27.828185 26.6718111,28.1328714 26.5780616,28.460996 L24.960878,32.9609853 L29.8827413,30.0781797 C30.1639906,29.937555 30.456959,29.9023988 30.7616454,29.9727112 C31.0663318,30.0430235 31.2889879,30.2188043 31.4296126,30.5000536 C31.5702372,30.781303 31.6053934,31.0742714 31.5350811,31.3789578 C31.4647687,31.6836442 31.2889879,31.9063003 31.0077386,32.046925 L26.0858753,34.8594183 L30.7968016,35.7734786 C31.0780509,35.8203538 31.300707,35.9726965 31.4647687,36.2305087 C31.6288305,36.488321 31.6874248,36.7695703 31.6405496,37.0742567 C31.5936743,37.3789431 31.4413316,37.6133183 31.1835194,37.77738 C30.9257072,37.9414418 30.6327398,38.0000361 30.3046152,37.9531609 L23.695256,36.2656649 L17.5077708,39.5000322 L23.695256,42.7343995 L30.3046152,41.0469035 C30.6327398,41.0000283 30.9257072,41.0586226 31.1835194,41.2226843 C31.4413316,41.3867461 31.5936743,41.6094022 31.6405496,41.8906515 C31.6874248,42.1719008 31.6405496,42.4531501 31.4999249,42.7343995 Z" id="snowflake" fill="#FFFFFF"></path>
                <path d="M609.499925,42.7343995 C609.3593,43.0156488 609.124926,43.1797106 608.796802,43.2265858 L604.085875,44.1406461 L609.007739,46.9531394 C609.288988,47.0937641 609.464769,47.3164202 609.535081,47.6211066 C609.605393,47.925793 609.570237,48.2187614 609.429613,48.5000107 C609.288988,48.7812601 609.066332,48.9570409 608.761645,49.0273532 C608.456959,49.0976656 608.163991,49.0625094 607.882741,48.9218847 L602.960878,46.0390791 L604.578062,50.5390684 C604.671811,50.8671929 604.648374,51.1718794 604.507749,51.4531287 C604.367125,51.734378 604.144469,51.9218779 603.839782,52.0156273 C603.535096,52.1093768 603.242127,52.0859397 602.960878,51.945315 C602.679629,51.8046903 602.492129,51.5703163 602.398379,51.2421917 L600.570259,44.7031448 L594.945272,41.4687775 L594.945272,47.9375121 L599.726511,52.789063 C599.960885,53.0234371 600.066353,53.2929684 600.042916,53.5976548 C600.019479,53.9023412 599.890572,54.1601535 599.656198,54.3710905 C599.421824,54.5820275 599.152293,54.687496 598.847607,54.687496 C598.54292,54.687496 598.273389,54.5703084 598.039015,54.3359343 L594.945272,50.679693 L594.945272,56.374992 C594.945272,56.7031165 594.839804,56.9726468 594.628867,57.1835838 C594.41793,57.3945208 594.160117,57.4999893 593.855431,57.4999893 C593.550745,57.4999893 593.281213,57.3945208 593.046839,57.1835838 C592.812465,56.9726468 592.695277,56.7031165 592.695277,56.374992 L592.695277,50.679693 L589.601535,54.3359343 C589.414035,54.5703084 589.156224,54.687496 588.828099,54.687496 C588.499975,54.687496 588.230444,54.5820275 588.019507,54.3710905 C587.80857,54.1601535 587.691383,53.9023412 587.667946,53.5976548 C587.644509,53.2929684 587.726539,53.0234371 587.914039,52.789063 L592.695277,47.9375121 L592.695277,41.4687775 L587.070291,44.7031448 L585.24217,51.2421917 C585.148421,51.5703163 584.960921,51.8046903 584.679672,51.945315 C584.398422,52.0859397 584.117173,52.1093768 583.835924,52.0156273 C583.554674,51.9218779 583.343737,51.734378 583.203113,51.4531287 C583.062488,51.1718794 583.039051,50.8671929 583.1328,50.5390684 L584.749984,46.0390791 L579.757808,48.9218847 C579.523434,49.0625094 579.253903,49.0976656 578.949216,49.0273532 C578.64453,48.9570409 578.410155,48.7812601 578.246093,48.5000107 C578.082031,48.2187614 578.046875,47.925793 578.140625,47.6211066 C578.234374,47.3164202 578.398437,47.0937641 578.632811,46.9531394 L583.624987,44.1406461 L578.91406,43.2265858 C578.585936,43.1797106 578.339843,43.0273679 578.175781,42.7695556 C578.011719,42.5117434 577.964844,42.2304941 578.035156,41.9258077 C578.105468,41.6211212 578.26953,41.3867461 578.527342,41.2226843 C578.785155,41.0586226 579.054685,41.0000283 579.335934,41.0469035 L585.945294,42.7343995 L592.132779,39.5000322 L585.945294,36.2656649 L579.335934,37.9531609 C579.054685,38.0000361 578.785155,37.9414418 578.527342,37.77738 C578.26953,37.6133183 578.105468,37.3789431 578.035156,37.0742567 C577.964844,36.7695703 578.011719,36.488321 578.175781,36.2305087 C578.339843,35.9726965 578.585936,35.8203538 578.91406,35.7734786 L583.624987,34.8594183 L578.632811,32.046925 C578.398437,31.9063003 578.234374,31.6836442 578.140625,31.3789578 C578.046875,31.0742714 578.082031,30.781303 578.246093,30.5000536 C578.410155,30.2188043 578.64453,30.0430235 578.949216,29.9727112 C579.253903,29.9023988 579.523434,29.937555 579.757808,30.0781797 L584.749984,32.9609853 L583.1328,28.460996 C583.039051,28.1328714 583.062488,27.828185 583.203113,27.5469357 C583.343737,27.2656864 583.554674,27.0781864 583.835924,26.984437 C584.117173,26.8906876 584.398422,26.9141247 584.679672,27.0547494 C584.960921,27.195374 585.148421,27.4297481 585.24217,27.7578727 L587.070291,34.2969196 L592.695277,37.5312869 L592.695277,31.0625523 L587.914039,26.2110014 C587.726539,25.9766273 587.644509,25.707096 587.667946,25.4024095 C587.691383,25.0977231 587.80857,24.8399109 588.019507,24.6289739 C588.230444,24.4180369 588.499975,24.3125684 588.828099,24.3125684 C589.156224,24.3125684 589.414035,24.429756 589.601535,24.6641301 L592.695277,28.3203713 L592.695277,22.6250724 C592.695277,22.2969478 592.812465,22.0274176 593.046839,21.8164806 C593.281213,21.6055436 593.550745,21.5000751 593.855431,21.5000751 C594.160117,21.5000751 594.41793,21.6055436 594.628867,21.8164806 C594.839804,22.0274176 594.945272,22.2969478 594.945272,22.6250724 L594.945272,28.3203713 L598.039015,24.6641301 C598.273389,24.429756 598.54292,24.3125684 598.847607,24.3125684 C599.152293,24.3125684 599.421824,24.4180369 599.656198,24.6289739 C599.890572,24.8399109 600.019479,25.0977231 600.042916,25.4024095 C600.066353,25.707096 599.960885,25.9766273 599.726511,26.2110014 L594.945272,31.0625523 L594.945272,37.5312869 L600.570259,34.2969196 L602.398379,27.7578727 C602.492129,27.4297481 602.679629,27.195374 602.960878,27.0547494 C603.242127,26.9141247 603.535096,26.8906876 603.839782,26.984437 C604.144469,27.0781864 604.367125,27.2656864 604.507749,27.5469357 C604.648374,27.828185 604.671811,28.1328714 604.578062,28.460996 L602.960878,32.9609853 L607.882741,30.0781797 C608.163991,29.937555 608.456959,29.9023988 608.761645,29.9727112 C609.066332,30.0430235 609.288988,30.2188043 609.429613,30.5000536 C609.570237,30.781303 609.605393,31.0742714 609.535081,31.3789578 C609.464769,31.6836442 609.288988,31.9063003 609.007739,32.046925 L604.085875,34.8594183 L608.796802,35.7734786 C609.078051,35.8203538 609.300707,35.9726965 609.464769,36.2305087 C609.62883,36.488321 609.687425,36.7695703 609.64055,37.0742567 C609.593674,37.3789431 609.441332,37.6133183 609.183519,37.77738 C608.925707,37.9414418 608.63274,38.0000361 608.304615,37.9531609 L601.695256,36.2656649 L595.507771,39.5000322 L601.695256,42.7343995 L608.304615,41.0469035 C608.63274,41.0000283 608.925707,41.0586226 609.183519,41.2226843 C609.441332,41.3867461 609.593674,41.6094022 609.64055,41.8906515 C609.687425,42.1719008 609.64055,42.4531501 609.499925,42.7343995 Z" id="snowflake" fill="#FFFFFF"></path>
                <g id="from-TY" transform="translate(213.000000, 77.000000)">
                    <g id="TRACKUITY">
                        <use fill="black" fill-opacity="1" filter="url(#filter-4)" xlink:href="#path-3"></use>
                        <use fill="#FFFFFF" fill-rule="evenodd" xlink:href="#path-3"></use>
                    </g>
                    <g id="from">
                        <use fill="black" fill-opacity="1" filter="url(#filter-6)" xlink:href="#path-5"></use>
                        <use fill="#FFFFFF" fill-rule="evenodd" xlink:href="#path-5"></use>
                    </g>
                </g>
            </g>
        </g>
    </g>
</svg>