<?xml version="1.0" encoding="UTF-8"?>
<svg width="162px" height="55px" viewBox="0 0 162 55" version="1.1" xmlns="http://www.w3.org/2000/svg" xmlns:xlink="http://www.w3.org/1999/xlink">
    <!-- Generator: Sketch 52.2 (67145) - http://www.bohemiancoding.com/sketch -->
    <title>Shake up</title>
    <desc>Created with Sketch.</desc>
    <defs>
        <path d="M0.996,8.152 L2.388,8.152 L2.388,14.824 L5.652,14.824 L5.652,16 L0.996,16 L0.996,8.152 Z M6.36,13.06 C6.36,12.5799976 6.43599924,12.1480019 6.588,11.764 C6.74000076,11.3799981 6.94199874,11.0560013 7.194,10.792 C7.44600126,10.5279987 7.73599836,10.3240007 8.064,10.18 C8.39200164,10.0359993 8.72799828,9.964 9.072,9.964 C9.472002,9.964 9.82399848,10.0319993 10.128,10.168 C10.4320015,10.3040007 10.685999,10.4959988 10.89,10.744 C11.094001,10.9920012 11.2479995,11.2879983 11.352,11.632 C11.4560005,11.9760017 11.508,12.351998 11.508,12.76 C11.508,13.0320014 11.4880002,13.2479992 11.448,13.408 L7.704,13.408 C7.76800032,13.9440027 7.95399846,14.3559986 8.262,14.644 C8.57000154,14.9320014 8.9639976,15.076 9.444,15.076 C9.70000128,15.076 9.9379989,15.0380004 10.158,14.962 C10.3780011,14.8859996 10.5959989,14.7800007 10.812,14.644 L11.28,15.508 C10.9999986,15.6920009 10.6880017,15.8439994 10.344,15.964 C9.99999828,16.0840006 9.64000188,16.144 9.264,16.144 C8.85599796,16.144 8.47600176,16.0740007 8.124,15.934 C7.77199824,15.7939993 7.46400132,15.5920013 7.2,15.328 C6.93599868,15.0639987 6.73000074,14.7420019 6.582,14.362 C6.43399926,13.9819981 6.36,13.5480024 6.36,13.06 Z M10.308,12.532 C10.308,12.0599976 10.210001,11.6920013 10.014,11.428 C9.81799902,11.1639987 9.51600204,11.032 9.108,11.032 C8.75599824,11.032 8.44800132,11.1579987 8.184,11.41 C7.91999868,11.6620013 7.75600032,12.0359975 7.692,12.532 L10.308,12.532 Z M12.84,11.2 L12,11.2 L12,10.168 L12.912,10.108 L13.08,8.5 L14.232,8.5 L14.232,10.108 L15.732,10.108 L15.732,11.2 L14.232,11.2 L14.232,14.008 C14.232,14.6960034 14.5079972,15.04 15.06,15.04 C15.1640005,15.04 15.2699995,15.0280001 15.378,15.004 C15.4860005,14.9799999 15.5839996,14.9480002 15.672,14.908 L15.912,15.928 C15.7519992,15.9840003 15.570001,16.0339998 15.366,16.078 C15.161999,16.1220002 14.9440012,16.144 14.712,16.144 C14.3679983,16.144 14.0780012,16.0920005 13.842,15.988 C13.6059988,15.8839995 13.4140007,15.7380009 13.266,15.55 C13.1179993,15.3619991 13.0100003,15.1380013 12.942,14.878 C12.8739997,14.6179987 12.84,14.3280016 12.84,14.008 L12.84,11.2 Z M16.896,10.696 C17.2320017,10.503999 17.4819992,10.2940011 17.646,10.066 C17.8100008,9.83799886 17.892,9.5440018 17.892,9.184 C17.8679999,9.19200004 17.8320002,9.196 17.784,9.196 C17.575999,9.196 17.3940008,9.13000066 17.238,8.998 C17.0819992,8.86599934 17.004,8.68400116 17.004,8.452 C17.004,8.19599872 17.0759993,7.99400074 17.22,7.846 C17.3640007,7.69799926 17.5519988,7.624 17.784,7.624 C18.0880015,7.624 18.3219992,7.73999884 18.486,7.972 C18.6500008,8.20400116 18.732,8.53199788 18.732,8.956 C18.732,10.0040052 18.232005,10.7879974 17.232,11.308 L16.896,10.696 Z M19.824,14.44 C20.0880013,14.648001 20.3499987,14.8099994 20.61,14.926 C20.8700013,15.0420006 21.1519985,15.1 21.456,15.1 C21.7760016,15.1 22.0119992,15.0340007 22.164,14.902 C22.3160008,14.7699993 22.392,14.600001 22.392,14.392 C22.392,14.2719994 22.3560004,14.1660005 22.284,14.074 C22.2119996,13.9819995 22.1160006,13.9000004 21.996,13.828 C21.8759994,13.7559996 21.7400008,13.6900003 21.588,13.63 C21.4359992,13.5699997 21.2840008,13.5080003 21.132,13.444 C20.939999,13.3719996 20.744001,13.2880005 20.544,13.192 C20.343999,13.0959995 20.1660008,12.9800007 20.01,12.844 C19.8539992,12.7079993 19.7260005,12.5500009 19.626,12.37 C19.5259995,12.1899991 19.476,11.9760012 19.476,11.728 C19.476,11.2079974 19.6679981,10.7840016 20.052,10.456 C20.4360019,10.1279984 20.9599967,9.964 21.624,9.964 C22.032002,9.964 22.3999984,10.0359993 22.728,10.18 C23.0560016,10.3240007 23.3399988,10.4879991 23.58,10.672 L22.944,11.512 C22.735999,11.3599992 22.5260011,11.2380005 22.314,11.146 C22.1019989,11.0539995 21.8800012,11.008 21.648,11.008 C21.3519985,11.008 21.1340007,11.0699994 20.994,11.194 C20.8539993,11.3180006 20.784,11.4719991 20.784,11.656 C20.784,11.7760006 20.8179997,11.8779996 20.886,11.962 C20.9540003,12.0460004 21.0439994,12.1199997 21.156,12.184 C21.2680006,12.2480003 21.3979993,12.3079997 21.546,12.364 C21.6940007,12.4200003 21.8479992,12.4759997 22.008,12.532 C22.208001,12.6040004 22.407999,12.6859995 22.608,12.778 C22.808001,12.8700005 22.9899992,12.9839993 23.154,13.12 C23.3180008,13.2560007 23.4499995,13.421999 23.55,13.618 C23.6500005,13.814001 23.7,14.0479986 23.7,14.32 C23.7,14.5760013 23.6500005,14.8139989 23.55,15.034 C23.4499995,15.2540011 23.304001,15.4459992 23.112,15.61 C22.919999,15.7740008 22.6800014,15.9039995 22.392,16 C22.1039986,16.0960005 21.7760018,16.144 21.408,16.144 C20.999998,16.144 20.598002,16.0660008 20.202,15.91 C19.805998,15.7539992 19.4640014,15.5600012 19.176,15.328 L19.824,14.44 Z" id="path-1"></path>
        <filter x="-5.5%" y="-14.7%" width="115.4%" height="141.1%" filterUnits="objectBoundingBox" id="filter-2">
            <feOffset dx="0.5" dy="0.5" in="SourceAlpha" result="shadowOffsetOuter1"></feOffset>
            <feGaussianBlur stdDeviation="0.5" in="shadowOffsetOuter1" result="shadowBlurOuter1"></feGaussianBlur>
            <feColorMatrix values="0 0 0 0 1   0 0 0 0 1   0 0 0 0 1  0 0 0 0.8 0" type="matrix" in="shadowBlurOuter1"></feColorMatrix>
        </filter>
        <path d="M1.756,47.224 C1.81200028,47.2400001 1.87799962,47.2579999 1.954,47.278 C2.03000038,47.2980001 2.10399964,47.308 2.176,47.308 C2.48800156,47.308 2.73799906,47.2140009 2.926,47.026 C3.11400094,46.8379991 3.25599952,46.5960015 3.352,46.3 L3.46,45.928 L1.144,40.108 L2.548,40.108 L3.568,43 C3.65600044,43.2560013 3.74199958,43.5259986 3.826,43.81 C3.91000042,44.0940014 3.99599956,44.3759986 4.084,44.656 L4.132,44.656 C4.20400036,44.3839986 4.27799962,44.1060014 4.354,43.822 C4.43000038,43.5379986 4.50399964,43.2640013 4.576,43 L5.464,40.108 L6.796,40.108 L4.66,46.264 C4.5399994,46.6000017 4.40800072,46.8999987 4.264,47.164 C4.11999928,47.4280013 3.95400094,47.6539991 3.766,47.842 C3.57799906,48.0300009 3.36200122,48.1739995 3.118,48.274 C2.87399878,48.3740005 2.5920016,48.424 2.272,48.424 C2.1119992,48.424 1.9720006,48.4140001 1.852,48.394 C1.7319994,48.3739999 1.61600056,48.3440002 1.504,48.304 L1.756,47.224 Z M7.36,43.06 C7.36,42.5719976 7.43599924,42.1360019 7.588,41.752 C7.74000076,41.3679981 7.9459987,41.0440013 8.206,40.78 C8.4660013,40.5159987 8.76399832,40.3140007 9.1,40.174 C9.43600168,40.0339993 9.78799816,39.964 10.156,39.964 C10.5240018,39.964 10.8779983,40.0339993 11.218,40.174 C11.5580017,40.3140007 11.8559987,40.5159987 12.112,40.78 C12.3680013,41.0440013 12.5739992,41.3679981 12.73,41.752 C12.8860008,42.1360019 12.964,42.5719976 12.964,43.06 C12.964,43.5480024 12.8860008,43.9839981 12.73,44.368 C12.5739992,44.7520019 12.3680013,45.0759987 12.112,45.34 C11.8559987,45.6040013 11.5580017,45.8039993 11.218,45.94 C10.8779983,46.0760007 10.5240018,46.144 10.156,46.144 C9.78799816,46.144 9.43600168,46.0760007 9.1,45.94 C8.76399832,45.8039993 8.4660013,45.6040013 8.206,45.34 C7.9459987,45.0759987 7.74000076,44.7520019 7.588,44.368 C7.43599924,43.9839981 7.36,43.5480024 7.36,43.06 Z M8.776,43.06 C8.776,43.652003 8.89799878,44.1259982 9.142,44.482 C9.38600122,44.8380018 9.72399784,45.016 10.156,45.016 C10.5880022,45.016 10.9279988,44.8380018 11.176,44.482 C11.4240012,44.1259982 11.548,43.652003 11.548,43.06 C11.548,42.459997 11.4240012,41.9820018 11.176,41.626 C10.9279988,41.2699982 10.5880022,41.092 10.156,41.092 C9.72399784,41.092 9.38600122,41.2699982 9.142,41.626 C8.89799878,41.9820018 8.776,42.459997 8.776,43.06 Z M14.272,40.108 L15.652,40.108 L15.652,43.624 C15.652,44.1120024 15.7239993,44.455999 15.868,44.656 C16.0120007,44.856001 16.2439984,44.956 16.564,44.956 C16.8200013,44.956 17.045999,44.8920006 17.242,44.764 C17.438001,44.6359994 17.6479989,44.4280014 17.872,44.14 L17.872,40.108 L19.252,40.108 L19.252,46 L18.124,46 L18.016,45.136 L17.98,45.136 C17.7239987,45.4400015 17.4460015,45.6839991 17.146,45.868 C16.8459985,46.0520009 16.492002,46.144 16.084,46.144 C15.4519968,46.144 14.9920014,45.942002 14.704,45.538 C14.4159986,45.133998 14.272,44.5560038 14.272,43.804 L14.272,40.108 Z M21.004,40.108 L22.144,40.108 L22.24,41.152 L22.288,41.152 C22.496001,40.7679981 22.7479985,40.474001 23.044,40.27 C23.3400015,40.065999 23.6439984,39.964 23.956,39.964 C24.2360014,39.964 24.4599992,40.0039996 24.628,40.084 L24.388,41.284 C24.2839995,41.2519998 24.1880004,41.2280001 24.1,41.212 C24.0119996,41.1959999 23.9040006,41.188 23.776,41.188 C23.5439988,41.188 23.3000013,41.2779991 23.044,41.458 C22.7879987,41.6380009 22.5680009,41.9519978 22.384,42.4 L22.384,46 L21.004,46 L21.004,40.108 Z M27.94,40.108 L29.08,40.108 L29.176,40.912 L29.224,40.912 C29.4720012,40.6479987 29.7419985,40.4240009 30.034,40.24 C30.3260015,40.0559991 30.6559982,39.964 31.024,39.964 C31.4560022,39.964 31.8019987,40.0559991 32.062,40.24 C32.3220013,40.4240009 32.5199993,40.6839983 32.656,41.02 C32.9360014,40.7159985 33.2279985,40.464001 33.532,40.264 C33.8360015,40.063999 34.1759981,39.964 34.552,39.964 C35.1760031,39.964 35.6359985,40.165998 35.932,40.57 C36.2280015,40.974002 36.376,41.5519962 36.376,42.304 L36.376,46 L34.984,46 L34.984,42.484 C34.984,41.9959976 34.9100007,41.652001 34.762,41.452 C34.6139993,41.251999 34.3880015,41.152 34.084,41.152 C33.7159982,41.152 33.3040023,41.3959976 32.848,41.884 L32.848,46 L31.468,46 L31.468,42.484 C31.468,41.9959976 31.3940007,41.652001 31.246,41.452 C31.0979993,41.251999 30.8680016,41.152 30.556,41.152 C30.1879982,41.152 29.7760023,41.3959976 29.32,41.884 L29.32,46 L27.94,46 L27.94,40.108 Z M37.804,44.416 C37.804,43.7839968 38.0799972,43.2960017 38.632,42.952 C39.1840028,42.6079983 40.063994,42.3680007 41.272,42.232 C41.272,42.0799992 41.2520002,41.9340007 41.212,41.794 C41.1719998,41.6539993 41.1100004,41.5300005 41.026,41.422 C40.9419996,41.3139995 40.8340007,41.2300003 40.702,41.17 C40.5699993,41.1099997 40.404001,41.08 40.204,41.08 C39.9079985,41.08 39.6220014,41.1359994 39.346,41.248 C39.0699986,41.3600006 38.8040013,41.4959992 38.548,41.656 L38.044,40.732 C38.3720016,40.523999 38.737998,40.3440008 39.142,40.192 C39.546002,40.0399992 39.9839976,39.964 40.456,39.964 C41.2000037,39.964 41.7519982,40.1819978 42.112,40.618 C42.4720018,41.0540022 42.652,41.6839959 42.652,42.508 L42.652,46 L41.524,46 L41.416,45.352 L41.38,45.352 C41.1159987,45.5760011 40.8340015,45.7639992 40.534,45.916 C40.2339985,46.0680008 39.9080018,46.144 39.556,46.144 C39.0359974,46.144 38.6140016,45.9860016 38.29,45.67 C37.9659984,45.3539984 37.804,44.9360026 37.804,44.416 Z M39.148,44.308 C39.148,44.5720013 39.2259992,44.7639994 39.382,44.884 C39.5380008,45.0040006 39.7399988,45.064 39.988,45.064 C40.2280012,45.064 40.447999,45.0080006 40.648,44.896 C40.848001,44.7839994 41.0559989,44.624001 41.272,44.416 L41.272,43.096 C40.871998,43.1440002 40.5360014,43.2079996 40.264,43.288 C39.9919986,43.3680004 39.7740008,43.4579995 39.61,43.558 C39.4459992,43.6580005 39.3280004,43.7719994 39.256,43.9 C39.1839996,44.0280006 39.148,44.1639993 39.148,44.308 Z M44.332,40.108 L45.472,40.108 L45.568,41.152 L45.616,41.152 C45.824001,40.7679981 46.0759985,40.474001 46.372,40.27 C46.6680015,40.065999 46.9719984,39.964 47.284,39.964 C47.5640014,39.964 47.7879992,40.0039996 47.956,40.084 L47.716,41.284 C47.6119995,41.2519998 47.5160004,41.2280001 47.428,41.212 C47.3399996,41.1959999 47.2320006,41.188 47.104,41.188 C46.8719988,41.188 46.6280013,41.2779991 46.372,41.458 C46.1159987,41.6380009 45.8960009,41.9519978 45.712,42.4 L45.712,46 L44.332,46 L44.332,40.108 Z M48.808,37.528 L50.164,37.528 L50.164,42.82 L50.2,42.82 L52.384,40.108 L53.896,40.108 L51.88,42.508 L54.1,46 L52.6,46 L51.088,43.444 L50.164,44.5 L50.164,46 L48.808,46 L48.808,37.528 Z M54.412,43.06 C54.412,42.5799976 54.4879992,42.1480019 54.64,41.764 C54.7920008,41.3799981 54.9939987,41.0560013 55.246,40.792 C55.4980013,40.5279987 55.7879984,40.3240007 56.116,40.18 C56.4440016,40.0359993 56.7799983,39.964 57.124,39.964 C57.524002,39.964 57.8759985,40.0319993 58.18,40.168 C58.4840015,40.3040007 58.737999,40.4959988 58.942,40.744 C59.146001,40.9920012 59.2999995,41.2879983 59.404,41.632 C59.5080005,41.9760017 59.56,42.351998 59.56,42.76 C59.56,43.0320014 59.5400002,43.2479992 59.5,43.408 L55.756,43.408 C55.8200003,43.9440027 56.0059985,44.3559986 56.314,44.644 C56.6220015,44.9320014 57.0159976,45.076 57.496,45.076 C57.7520013,45.076 57.9899989,45.0380004 58.21,44.962 C58.4300011,44.8859996 58.6479989,44.7800007 58.864,44.644 L59.332,45.508 C59.0519986,45.6920009 58.7400017,45.8439994 58.396,45.964 C58.0519983,46.0840006 57.6920019,46.144 57.316,46.144 C56.907998,46.144 56.5280018,46.0740007 56.176,45.934 C55.8239982,45.7939993 55.5160013,45.5920013 55.252,45.328 C54.9879987,45.0639987 54.7820007,44.7420019 54.634,44.362 C54.4859993,43.9819981 54.412,43.5480024 54.412,43.06 Z M58.36,42.532 C58.36,42.0599976 58.262001,41.6920013 58.066,41.428 C57.869999,41.1639987 57.568002,41.032 57.16,41.032 C56.8079982,41.032 56.5000013,41.1579987 56.236,41.41 C55.9719987,41.6620013 55.8080003,42.0359975 55.744,42.532 L58.36,42.532 Z M60.892,41.2 L60.052,41.2 L60.052,40.168 L60.964,40.108 L61.132,38.5 L62.284,38.5 L62.284,40.108 L63.784,40.108 L63.784,41.2 L62.284,41.2 L62.284,44.008 C62.284,44.6960034 62.5599972,45.04 63.112,45.04 C63.2160005,45.04 63.3219995,45.0280001 63.43,45.004 C63.5380005,44.9799999 63.6359996,44.9480002 63.724,44.908 L63.964,45.928 C63.8039992,45.9840003 63.622001,46.0339998 63.418,46.078 C63.213999,46.1220002 62.9960012,46.144 62.764,46.144 C62.4199983,46.144 62.1300012,46.0920005 61.894,45.988 C61.6579988,45.8839995 61.4660007,45.7380009 61.318,45.55 C61.1699993,45.3619991 61.0620003,45.1380013 60.994,44.878 C60.9259997,44.6179987 60.892,44.3280016 60.892,44.008 L60.892,41.2 Z M65.716,39.076 C65.4679988,39.076 65.2640008,39.0040007 65.104,38.86 C64.9439992,38.7159993 64.864,38.5280012 64.864,38.296 C64.864,38.0639988 64.9439992,37.8740007 65.104,37.726 C65.2640008,37.5779993 65.4679988,37.504 65.716,37.504 C65.9640012,37.504 66.1679992,37.5779993 66.328,37.726 C66.4880008,37.8740007 66.568,38.0639988 66.568,38.296 C66.568,38.5280012 66.4880008,38.7159993 66.328,38.86 C66.1679992,39.0040007 65.9640012,39.076 65.716,39.076 Z M65.02,40.108 L66.4,40.108 L66.4,46 L65.02,46 L65.02,40.108 Z M68.164,40.108 L69.304,40.108 L69.4,40.9 L69.448,40.9 C69.7120013,40.6439987 69.9979985,40.4240009 70.306,40.24 C70.6140015,40.0559991 70.971998,39.964 71.38,39.964 C72.0120032,39.964 72.4719986,40.165998 72.76,40.57 C73.0480014,40.974002 73.192,41.5519962 73.192,42.304 L73.192,46 L71.812,46 L71.812,42.484 C71.812,41.9959976 71.7400007,41.652001 71.596,41.452 C71.4519993,41.251999 71.2160016,41.152 70.888,41.152 C70.6319987,41.152 70.406001,41.2139994 70.21,41.338 C70.013999,41.4620006 69.7920012,41.6439988 69.544,41.884 L69.544,46 L68.164,46 L68.164,40.108 Z M75.64,46.864 C75.64,47.1280013 75.7739987,47.3339993 76.042,47.482 C76.3100013,47.6300007 76.6799976,47.704 77.152,47.704 C77.6320024,47.704 78.0179985,47.6100009 78.31,47.422 C78.6020015,47.2339991 78.748,47.0120013 78.748,46.756 C78.748,46.5239988 78.6580009,46.3680004 78.478,46.288 C78.2979991,46.2079996 78.0400017,46.168 77.704,46.168 L76.9,46.168 C76.5799984,46.168 76.3120011,46.1400003 76.096,46.084 C75.7919985,46.3160012 75.64,46.5759986 75.64,46.864 Z M74.488,47.068 C74.488,46.8199988 74.5599993,46.5900011 74.704,46.378 C74.8480007,46.1659989 75.0559986,45.9760008 75.328,45.808 L75.328,45.76 C75.1759992,45.6639995 75.0500005,45.5360008 74.95,45.376 C74.8499995,45.2159992 74.8,45.0160012 74.8,44.776 C74.8,44.5439988 74.8659993,44.3340009 74.998,44.146 C75.1300007,43.9579991 75.2799992,43.8040006 75.448,43.684 L75.448,43.636 C75.247999,43.4839992 75.0700008,43.2740013 74.914,43.006 C74.7579992,42.7379987 74.68,42.4280018 74.68,42.076 C74.68,41.7399983 74.7439994,41.4400013 74.872,41.176 C75.0000006,40.9119987 75.1699989,40.6900009 75.382,40.51 C75.5940011,40.3299991 75.8399986,40.1940005 76.12,40.102 C76.4000014,40.0099995 76.6959984,39.964 77.008,39.964 C77.1680008,39.964 77.3219993,39.9779999 77.47,40.006 C77.6180007,40.0340001 77.7519994,40.0679998 77.872,40.108 L79.984,40.108 L79.984,41.128 L78.904,41.128 C79.0000005,41.2400006 79.0799997,41.3819991 79.144,41.554 C79.2080003,41.7260009 79.24,41.915999 79.24,42.124 C79.24,42.4520016 79.1820006,42.7399988 79.066,42.988 C78.9499994,43.2360012 78.792001,43.4439992 78.592,43.612 C78.391999,43.7800008 78.1560014,43.9079996 77.884,43.996 C77.6119986,44.0840004 77.3200016,44.128 77.008,44.128 C76.8799994,44.128 76.7480007,44.1160001 76.612,44.092 C76.4759993,44.0679999 76.3400007,44.0280003 76.204,43.972 C76.1159996,44.0520004 76.0460003,44.1319996 75.994,44.212 C75.9419997,44.2920004 75.916,44.3999993 75.916,44.536 C75.916,44.7040008 75.9859993,44.8359995 76.126,44.932 C76.2660007,45.0280005 76.5159982,45.076 76.876,45.076 L77.92,45.076 C78.6320036,45.076 79.1699982,45.1899989 79.534,45.418 C79.8980018,45.6460011 80.08,46.0159974 80.08,46.528 C80.08,46.8160014 80.0060007,47.0879987 79.858,47.344 C79.7099993,47.6000013 79.5000014,47.8199991 79.228,48.004 C78.9559986,48.1880009 78.6260019,48.3339995 78.238,48.442 C77.8499981,48.5500005 77.4160024,48.604 76.936,48.604 C76.5839982,48.604 76.2580015,48.5720003 75.958,48.508 C75.6579985,48.4439997 75.4000011,48.3480006 75.184,48.22 C74.9679989,48.0919994 74.7980006,47.932001 74.674,47.74 C74.5499994,47.547999 74.488,47.3240013 74.488,47.068 Z M77.008,43.264 C77.2880014,43.264 77.527999,43.162001 77.728,42.958 C77.928001,42.753999 78.028,42.4600019 78.028,42.076 C78.028,41.7079982 77.930001,41.422001 77.734,41.218 C77.537999,41.013999 77.2960014,40.912 77.008,40.912 C76.7199986,40.912 76.476001,41.011999 76.276,41.212 C76.075999,41.412001 75.976,41.6999981 75.976,42.076 C75.976,42.4600019 76.075999,42.753999 76.276,42.958 C76.476001,43.162001 76.7199986,43.264 77.008,43.264 Z M84.28,39.076 C84.0319988,39.076 83.8280008,39.0040007 83.668,38.86 C83.5079992,38.7159993 83.428,38.5280012 83.428,38.296 C83.428,38.0639988 83.5079992,37.8740007 83.668,37.726 C83.8280008,37.5779993 84.0319988,37.504 84.28,37.504 C84.5280012,37.504 84.7319992,37.5779993 84.892,37.726 C85.0520008,37.8740007 85.132,38.0639988 85.132,38.296 C85.132,38.5280012 85.0520008,38.7159993 84.892,38.86 C84.7319992,39.0040007 84.5280012,39.076 84.28,39.076 Z M83.584,40.108 L84.964,40.108 L84.964,46 L83.584,46 L83.584,40.108 Z M86.728,40.108 L87.868,40.108 L87.964,40.9 L88.012,40.9 C88.2760013,40.6439987 88.5619985,40.4240009 88.87,40.24 C89.1780015,40.0559991 89.535998,39.964 89.944,39.964 C90.5760032,39.964 91.0359986,40.165998 91.324,40.57 C91.6120014,40.974002 91.756,41.5519962 91.756,42.304 L91.756,46 L90.376,46 L90.376,42.484 C90.376,41.9959976 90.3040007,41.652001 90.16,41.452 C90.0159993,41.251999 89.7800016,41.152 89.452,41.152 C89.1959987,41.152 88.970001,41.2139994 88.774,41.338 C88.577999,41.4620006 88.3560012,41.6439988 88.108,41.884 L88.108,46 L86.728,46 L86.728,40.108 Z" id="path-3"></path>
        <filter x="-1.4%" y="-11.3%" width="103.9%" height="131.5%" filterUnits="objectBoundingBox" id="filter-4">
            <feOffset dx="0.5" dy="0.5" in="SourceAlpha" result="shadowOffsetOuter1"></feOffset>
            <feGaussianBlur stdDeviation="0.5" in="shadowOffsetOuter1" result="shadowBlurOuter1"></feGaussianBlur>
            <feColorMatrix values="0 0 0 0 1   0 0 0 0 1   0 0 0 0 1  0 0 0 0.8 0" type="matrix" in="shadowBlurOuter1"></feColorMatrix>
        </filter>
        <path d="M34.03,18.39 C34.3100014,18.4500003 34.6099984,18.4999998 34.93,18.54 C35.2100014,18.5800002 35.5049984,18.6149998 35.815,18.645 C36.1250015,18.6750001 36.4399984,18.69 36.76,18.69 C37.3200028,18.69 37.8649973,18.6250006 38.395,18.495 C38.9250026,18.3649993 39.3999979,18.1500015 39.82,17.85 C40.2400021,17.5499985 40.5749987,17.1650023 40.825,16.695 C41.0750012,16.2249976 41.2,15.6500034 41.2,14.97 C41.2,14.3899971 41.0550014,13.8400026 40.765,13.32 C40.4749985,12.7999974 40.1050022,12.3000024 39.655,11.82 C39.2049977,11.3399976 38.7250025,10.8800022 38.215,10.44 C37.7049974,9.9999978 37.2250022,9.55500225 36.775,9.105 C36.3249977,8.65499775 35.9550014,8.20500225 35.665,7.755 C35.3749985,7.30499775 35.23,6.8400024 35.23,6.36 C35.23,5.6399964 35.4599977,5.08500195 35.92,4.695 C36.3800023,4.30499805 37.1199949,4.11 38.14,4.11 C38.3000008,4.11 38.4649991,4.11499995 38.635,4.125 C38.8050008,4.13500005 38.9699992,4.1499999 39.13,4.17 C39.2900008,4.1900001 39.4499992,4.2 39.61,4.2 L39.61,3.42 C39.4699993,3.42 39.3200008,3.4100001 39.16,3.39 C39.0199993,3.3699999 38.8650008,3.35500005 38.695,3.345 C38.5249991,3.33499995 38.3500009,3.33 38.17,3.33 C37.0899946,3.33 36.2000035,3.57499755 35.5,4.065 C34.7999965,4.55500245 34.45,5.3199948 34.45,6.36 C34.45,6.9200028 34.5949985,7.44499755 34.885,7.935 C35.1750014,8.42500245 35.5449977,8.90499765 35.995,9.375 C36.4450022,9.84500235 36.9249974,10.2999978 37.435,10.74 C37.9450025,11.1800022 38.4249977,11.6249977 38.875,12.075 C39.3250022,12.5250022 39.6949985,12.9899976 39.985,13.47 C40.2750014,13.9500024 40.42,14.4499974 40.42,14.97 C40.42,15.9300048 40.0950032,16.6599975 39.445,17.16 C38.7949967,17.6600025 37.9000057,17.91 36.76,17.91 C36.0799966,17.91 35.4600028,17.8600005 34.9,17.76 C34.5999985,17.7199998 34.3100014,17.6700003 34.03,17.61 L34.03,18.39 Z M31.51,14.79 C31.9500022,14.9300007 32.4099976,15.0399996 32.89,15.12 C33.290002,15.2200005 33.7449974,15.2999997 34.255,15.36 C34.7650025,15.4200003 35.2799974,15.45 35.8,15.45 C36.7200046,15.45 37.18,15.1100034 37.18,14.43 C37.18,14.1699987 37.0400014,13.9050013 36.76,13.635 C36.4799986,13.3649986 36.1250021,13.0650016 35.695,12.735 C35.2649978,12.4049983 34.8050024,12.040002 34.315,11.64 C33.8249975,11.239998 33.3650021,10.7800026 32.935,10.26 C32.5049978,9.7399974 32.1500014,9.15500325 31.87,8.505 C31.5899986,7.85499675 31.45,7.1100042 31.45,6.27 C31.45,5.3299953 31.6199983,4.5000036 31.96,3.78 C32.3000017,3.0599964 32.769997,2.4600024 33.37,1.98 C33.970003,1.4999976 34.6749959,1.13500125 35.485,0.885 C36.295004,0.63499875 37.1599954,0.51 38.08,0.51 C38.5600024,0.51 39.0399976,0.53499975 39.52,0.585 C40.0000024,0.63500025 40.4299981,0.6799998 40.81,0.72 C41.2500022,0.7800003 41.6799979,0.8399997 42.1,0.9 L42.1,6.51 C41.9399992,6.4899999 41.760001,6.4700001 41.56,6.45 C41.3999992,6.4299999 41.220001,6.4100001 41.02,6.39 C40.819999,6.3699999 40.6100011,6.36 40.39,6.36 C40.2699994,6.36 40.1200009,6.36499995 39.94,6.375 C39.7599991,6.38500005 39.5900008,6.4099998 39.43,6.45 C39.2699992,6.4900002 39.1300006,6.5599995 39.01,6.66 C38.8899994,6.7600005 38.83,6.8999991 38.83,7.08 C38.83,7.2400008 38.9649986,7.4399988 39.235,7.68 C39.5050013,7.9200012 39.834998,8.1999984 40.225,8.52 C40.6150019,8.8400016 41.0449976,9.2099979 41.515,9.63 C41.9850023,10.0500021 42.414998,10.5299973 42.805,11.07 C43.1950019,11.6100027 43.5249986,12.2199966 43.795,12.9 C44.0650013,13.5800034 44.2,14.3399958 44.2,15.18 C44.2,16.0600044 44.0600014,16.8849961 43.78,17.655 C43.4999986,18.4250038 43.0650029,19.0949971 42.475,19.665 C41.884997,20.2350028 41.1300046,20.6849983 40.21,21.015 C39.2899954,21.3450016 38.2000063,21.51 36.94,21.51 C36.1799962,21.51 35.4750032,21.4750003 34.825,21.405 C34.1749967,21.3349996 33.6000025,21.2500005 33.1,21.15 C32.5199971,21.0499995 31.9900024,20.9300007 31.51,20.79 L31.51,14.79 Z M46.15,0.99 L52.54,0.99 L52.54,7.8 L56.11,7.8 L56.11,0.99 L62.53,0.99 L62.53,21 L56.11,21 L56.11,13.59 L52.54,13.59 L52.54,21 L46.15,21 L46.15,0.99 Z M49.93,18.6 L49.93,11.01 L58.75,11.01 L58.75,18.6 L59.53,18.6 L59.53,3.39 L58.75,3.39 L58.75,10.29 L49.93,10.29 L49.93,3.39 L49.15,3.39 L49.15,18.6 L49.93,18.6 Z M71.17,0.99 L75.97,0.99 L83.56,21 L77.26,21 L76.6,19.2 L70.54,19.2 L69.88,21 L63.58,21 L71.17,0.99 Z M74.92,14.79 L73.57,11.28 L72.22,14.79 L74.92,14.79 Z M68.05,18.6 L68.62,17.1 L78.52,17.1 L79.09,18.6 L79.93,18.6 L74.14,3.39 L73,3.39 L67.21,18.6 L68.05,18.6 Z M73.57,4.11 L78.25,16.38 L68.89,16.38 L73.57,4.11 Z M84.6100001,0.99 L91.0900001,0.99 L91.0900001,5.61 L94.8700001,0.99 L102.7,0.99 L95.6500001,10.14 L103.06,21 L95.3500001,21 L91.0900001,14.82 L91.0900001,21 L84.6100001,21 L84.6100001,0.99 Z M88.3900001,18.6 L88.3900001,14.55 L91.5100001,10.68 L96.9700001,18.6 L97.9000001,18.6 L92.0500001,10.05 L97.4200001,3.39 L96.4600001,3.39 L88.3900001,13.35 L88.3900001,3.39 L87.6100001,3.39 L87.6100001,18.6 L88.3900001,18.6 Z M104.26,0.99 L116.05,0.99 L116.05,6.24 L110.65,6.24 L110.65,8.46 L115.96,8.46 L115.96,13.44 L110.65,13.44 L110.65,15.75 L116.26,15.75 L116.26,21 L104.26,21 L104.26,0.99 Z M114.04,18.6 L114.04,17.88 L108.04,17.88 L108.04,11.31 L113.74,11.31 L113.74,10.59 L108.04,10.59 L108.04,4.11 L114.04,4.11 L114.04,3.39 L107.26,3.39 L107.26,18.6 L114.04,18.6 Z M133.45,21.51 C132.189994,21.51 131.050005,21.3500016 130.03,21.03 C129.009995,20.7099984 128.140004,20.2300032 127.42,19.59 C126.699997,18.9499968 126.145002,18.1400049 125.755,17.16 C125.364998,16.1799951 125.17,15.0300066 125.17,13.71 L125.17,0.99 L131.56,0.99 L131.56,13.44 C131.56,14.1400035 131.704999,14.6749981 131.995,15.045 C132.285002,15.4150018 132.769997,15.6 133.45,15.6 C134.130004,15.6 134.614999,15.4150018 134.905,15.045 C135.195002,14.6749981 135.34,14.1400035 135.34,13.44 L135.34,0.99 L141.76,0.99 L141.76,13.71 C141.76,15.0300066 141.565002,16.1799951 141.175,17.16 C140.784998,18.1400049 140.225004,18.9499968 139.495,19.59 C138.764996,20.2300032 137.890005,20.7099984 136.87,21.03 C135.849995,21.3500016 134.710006,21.51 133.45,21.51 Z M133.45,17.91 C130.449985,17.91 128.95,16.4400147 128.95,13.5 L128.95,3.39 L128.17,3.39 L128.17,13.5 C128.17,15.1800084 128.624996,16.4649955 129.535,17.355 C130.445005,18.2450044 131.749992,18.69 133.45,18.69 C135.150009,18.69 136.459996,18.2450044 137.38,17.355 C138.300005,16.4649955 138.76,15.1800084 138.76,13.5 L138.76,3.39 L137.95,3.39 L137.95,13.5 C137.95,16.4400147 136.450015,17.91 133.45,17.91 Z M159.94,8.61 C159.94,9.9900069 159.700003,11.1649951 159.22,12.135 C158.739998,13.1050048 158.085004,13.889997 157.255,14.49 C156.424996,15.090003 155.455006,15.5299986 154.345,15.81 C153.234995,16.0900014 152.040007,16.23 150.76,16.23 L150.76,21 L144.37,21 L144.37,0.99 L150.76,0.99 C152.040007,0.99 153.234995,1.1299986 154.345,1.41 C155.455006,1.6900014 156.424996,2.129997 157.255,2.73 C158.085004,3.330003 158.739998,4.11499515 159.22,5.085 C159.700003,6.05500485 159.94,7.2299931 159.94,8.61 Z M157.03,8.61 C157.03,7.7099955 156.875002,6.9300033 156.565,6.27 C156.254999,5.6099967 155.820003,5.0700021 155.26,4.65 C154.699997,4.2299979 154.035004,3.91500105 153.265,3.705 C152.494996,3.49499895 151.660005,3.39 150.76,3.39 L147.37,3.39 L147.37,18.6 L148.15,18.6 L148.15,13.83 L150.76,13.83 C151.660005,13.83 152.494996,13.725001 153.265,13.515 C154.035004,13.3049989 154.699997,12.9900021 155.26,12.57 C155.820003,12.1499979 156.254999,11.6100033 156.565,10.95 C156.875002,10.2899967 157.03,9.5100045 157.03,8.61 Z M156.19,8.61 C156.19,9.4700043 156.040002,10.1899971 155.74,10.77 C155.439999,11.3500029 155.040003,11.8099983 154.54,12.15 C154.039998,12.4900017 153.465003,12.7349992 152.815,12.885 C152.164997,13.0350007 151.480004,13.11 150.76,13.11 L148.15,13.11 L148.15,4.11 L150.76,4.11 C151.480004,4.11 152.164997,4.18499925 152.815,4.335 C153.465003,4.48500075 154.039998,4.7299983 154.54,5.07 C155.040003,5.4100017 155.439999,5.8699971 155.74,6.45 C156.040002,7.0300029 156.19,7.7499957 156.19,8.61 Z M150.76,10.83 L151.03,10.83 C151.870004,10.83 152.474998,10.6350019 152.845,10.245 C153.215002,9.85499805 153.4,9.3100035 153.4,8.61 C153.4,7.9099965 153.215002,7.36500195 152.845,6.975 C152.474998,6.58499805 151.870004,6.39 151.03,6.39 L150.76,6.39 L150.76,10.83 Z" id="path-5"></path>
        <filter x="-1.0%" y="-6.0%" width="102.7%" height="116.7%" filterUnits="objectBoundingBox" id="filter-6">
            <feOffset dx="0.5" dy="0.5" in="SourceAlpha" result="shadowOffsetOuter1"></feOffset>
            <feGaussianBlur stdDeviation="0.5" in="shadowOffsetOuter1" result="shadowBlurOuter1"></feGaussianBlur>
            <feColorMatrix values="0 0 0 0 1   0 0 0 0 1   0 0 0 0 1  0 0 0 1 0" type="matrix" in="shadowBlurOuter1"></feColorMatrix>
        </filter>
        <path d="M101.719,42.44 C102.181002,41.5599956 102.477999,40.9000022 102.61,40.46 C102.742001,40.0199978 102.808,39.602002 102.808,39.206 C102.808,37.7319926 101.906009,36.995 100.102,36.995 C99.9259991,36.995 99.7610008,37.0004999 99.607,37.0115 C99.4529992,37.0225001 99.3100007,37.0389999 99.178,37.061 C99.0679995,37.0830001 98.9250009,37.094 98.749,37.094 L98.749,30.989 C99.0570015,30.9229997 99.3319988,30.8680002 99.574,30.824 C99.8160012,30.7799998 100.052499,30.7470001 100.2835,30.725 C100.514501,30.7029999 100.756499,30.6865001 101.0095,30.6755 C101.262501,30.6644999 101.553998,30.659 101.884,30.659 C102.940005,30.659 103.979495,30.7744988 105.0025,31.0055 C106.025505,31.2365012 106.943996,31.6159974 107.758,32.144 C108.572004,32.6720026 109.231997,33.3759956 109.738,34.256 C110.244003,35.1360044 110.497,36.2139936 110.497,37.49 C110.497,38.084003 110.431001,38.6724971 110.299,39.2555 C110.166999,39.8385029 109.963501,40.4709966 109.6885,41.153 C109.413499,41.8350034 109.061502,42.5994958 108.6325,43.4465 C108.203498,44.2935042 107.703003,45.2779944 107.131,46.4 L106.702,47.225 L110.86,47.225 L108.979,53 L96.175,53 L101.719,42.44 Z M107.197,50.36 L107.494,49.568 L102.082,49.568 L105.811,42.506 C106.207002,41.7359961 106.531499,40.9880036 106.7845,40.262 C107.037501,39.5359964 107.164,38.7990037 107.164,38.051 C107.164,36.5989927 106.696505,35.4990037 105.7615,34.751 C104.826495,34.0029963 103.622007,33.629 102.148,33.629 C102.082,33.629 102.0215,33.6344999 101.9665,33.6455 C101.9115,33.6565001 101.862,33.662 101.818,33.662 L101.719,33.662 L101.719,34.454 L101.818,34.454 C101.862,34.454 101.9115,34.4485001 101.9665,34.4375 C102.0215,34.4264999 102.082,34.421 102.148,34.421 C103.402006,34.421 104.408496,34.7344969 105.1675,35.3615 C105.926504,35.9885031 106.306,36.8959941 106.306,38.084 C106.306,38.7000031 106.196001,39.3434966 105.976,40.0145 C105.755999,40.6855034 105.448002,41.4059962 105.052,42.176 L100.729,50.36 L107.197,50.36 Z M129.769,42.011 C129.769,45.7510187 128.988008,48.6109901 127.426,50.591 C125.863992,52.5710099 123.686014,53.561 120.892,53.561 C118.097986,53.561 115.920008,52.5710099 114.358,50.591 C112.795992,48.6109901 112.015,45.7510187 112.015,42.011 C112.015,38.2709813 112.795992,35.4110099 114.358,33.431 C115.920008,31.4509901 118.097986,30.461 120.892,30.461 C123.686014,30.461 125.863992,31.4509901 127.426,33.431 C128.988008,35.4110099 129.769,38.2709813 129.769,42.011 Z M125.842,42.011 C125.842,42.7590037 125.776001,43.5894954 125.644,44.5025 C125.511999,45.4155046 125.264502,46.267996 124.9015,47.06 C124.538498,47.852004 124.032503,48.5174973 123.3835,49.0565 C122.734497,49.5955027 121.904005,49.865 120.892,49.865 C119.857995,49.865 119.022003,49.5955027 118.384,49.0565 C117.745997,48.5174973 117.245502,47.852004 116.8825,47.06 C116.519498,46.267996 116.272001,45.4155046 116.14,44.5025 C116.007999,43.5894954 115.942,42.7590037 115.942,42.011 C115.942,41.2629963 116.007999,40.4325046 116.14,39.5195 C116.272001,38.6064954 116.519498,37.754004 116.8825,36.962 C117.245502,36.169996 117.745997,35.5045027 118.384,34.9655 C119.022003,34.4264973 119.857995,34.157 120.892,34.157 C121.904005,34.157 122.734497,34.4264973 123.3835,34.9655 C124.032503,35.5045027 124.538498,36.169996 124.9015,36.962 C125.264502,37.754004 125.511999,38.6064954 125.644,39.5195 C125.776001,40.4325046 125.842,41.2629963 125.842,42.011 Z M115.084,42.011 C115.084,43.0010049 115.177499,44.0074949 115.3645,45.0305 C115.551501,46.0535051 115.864998,46.9829958 116.305,47.819 C116.745002,48.6550042 117.338996,49.3369974 118.087,49.865 C118.835004,50.3930026 119.769994,50.657 120.892,50.657 C122.014006,50.657 122.948996,50.3930026 123.697,49.865 C124.445004,49.3369974 125.038998,48.6550042 125.479,47.819 C125.919002,46.9829958 126.232499,46.0535051 126.4195,45.0305 C126.606501,44.0074949 126.7,43.0010049 126.7,42.011 C126.7,41.020995 126.606501,40.0145051 126.4195,38.9915 C126.232499,37.9684949 125.919002,37.0390042 125.479,36.203 C125.038998,35.3669958 124.445004,34.6850026 123.697,34.157 C122.948996,33.6289974 122.014006,33.365 120.892,33.365 C119.769994,33.365 118.835004,33.6289974 118.087,34.157 C117.338996,34.6850026 116.745002,35.3669958 116.305,36.203 C115.864998,37.0390042 115.551501,37.9684949 115.3645,38.9915 C115.177499,40.0145051 115.084,41.020995 115.084,42.011 Z M123.004,42.011 C123.004,38.5569827 122.300007,36.83 120.892,36.83 C119.483993,36.83 118.78,38.5569827 118.78,42.011 C118.78,45.4650173 119.483993,47.192 120.892,47.192 C122.300007,47.192 123.004,45.4650173 123.004,42.011 Z M132.904,39.569 L129.934,36.104 L134.752,30.989 L140.032,30.989 L140.032,53 L132.904,53 L132.904,39.569 Z M136.831,50.36 L136.831,33.629 L135.907,33.629 L133.366,36.335 L133.861,36.896 L135.973,34.751 L135.973,50.36 L136.831,50.36 Z M159.304,39.107 C159.304,40.0310046 159.199501,40.9384955 158.9905,41.8295 C158.781499,42.7205045 158.512002,43.5784959 158.182,44.4035 C157.851998,45.2285041 157.478002,46.0149963 157.06,46.763 C156.641998,47.5110037 156.213002,48.2039968 155.773,48.842 C155.266997,49.5900037 154.717003,50.3104965 154.123,51.0035 C153.528997,51.6965035 152.913003,52.3619968 152.275,53 L144.289,53 C144.531001,52.7579988 144.783999,52.4885015 145.048,52.1915 C145.312001,51.8944985 145.586998,51.5920015 145.873,51.284 C146.335002,50.7339973 146.835497,50.0905037 147.3745,49.3535 C147.913503,48.6164963 148.435997,47.7860046 148.942,46.862 C147.951995,46.663999 147.050004,46.3175025 146.236,45.8225 C145.421996,45.3274975 144.723503,44.7280035 144.1405,44.024 C143.557497,43.3199965 143.112001,42.5170045 142.804,41.615 C142.495998,40.7129955 142.342,39.7560051 142.342,38.744 C142.342,37.5999943 142.550998,36.5220051 142.969,35.51 C143.387002,34.4979949 143.964496,33.6125038 144.7015,32.8535 C145.438504,32.0944962 146.312995,31.5005021 147.325,31.0715 C148.337005,30.6424979 149.436994,30.428 150.625,30.428 C151.857006,30.428 153.000995,30.6424979 154.057,31.0715 C155.113005,31.5005021 156.031496,32.1054961 156.8125,32.8865 C157.593504,33.6675039 158.203998,34.5859947 158.644,35.642 C159.084002,36.6980053 159.304,37.8529937 159.304,39.107 Z M150.823,33.497 C150.074996,33.497 149.371003,33.6399986 148.711,33.926 C148.050997,34.2120014 147.479002,34.5969976 146.995,35.081 C146.510997,35.5650024 146.126001,36.1369967 145.84,36.797 C145.553998,37.4570033 145.411,38.1609963 145.411,38.909 C145.411,39.6570037 145.553998,40.3609967 145.84,41.021 C146.126001,41.6810033 146.510997,42.2529976 146.995,42.737 C147.479002,43.2210024 148.050997,43.6059986 148.711,43.892 C149.371003,44.1780014 150.074996,44.321 150.823,44.321 C151.637004,44.321 152.390496,44.1615016 153.0835,43.8425 C153.776503,43.5234984 154.375997,43.0780029 154.882,42.506 C154.529998,43.5840054 154.068003,44.6014952 153.496,45.5585 C152.923997,46.5155048 152.352003,47.3459965 151.78,48.05 C151.449998,48.4680021 151.114502,48.8694981 150.7735,49.2545 C150.432498,49.6395019 150.075002,50.0079982 149.701,50.36 L150.757,50.36 C151.263002,49.8539975 151.741498,49.3205028 152.1925,48.7595 C152.643502,48.1984972 153.077998,47.6100031 153.496,46.994 C153.826002,46.4879975 154.155998,45.938003 154.486,45.344 C154.816002,44.749997 155.107499,44.1285032 155.3605,43.4795 C155.613501,42.8304968 155.822499,42.1595035 155.9875,41.4665 C156.152501,40.7734965 156.235,40.0750035 156.235,39.371 C156.235,38.4469954 156.092001,37.6220036 155.806,36.896 C155.519998,36.1699964 155.129502,35.5540025 154.6345,35.048 C154.139497,34.5419975 153.567503,34.1570013 152.9185,33.893 C152.269497,33.6289987 151.571004,33.497 150.823,33.497 Z M155.344,38.909 C155.344,39.5470032 155.228501,40.1354973 154.9975,40.6745 C154.766499,41.2135027 154.442002,41.6919979 154.024,42.11 C153.605998,42.5280021 153.122003,42.8524988 152.572,43.0835 C152.021997,43.3145012 151.439003,43.43 150.823,43.43 C150.184997,43.43 149.596503,43.3145012 149.0575,43.0835 C148.518497,42.8524988 148.040002,42.5280021 147.622,42.11 C147.203998,41.6919979 146.879501,41.2135027 146.6485,40.6745 C146.417499,40.1354973 146.302,39.5470032 146.302,38.909 C146.302,38.2929969 146.417499,37.7100028 146.6485,37.16 C146.879501,36.6099973 147.203998,36.1260021 147.622,35.708 C148.040002,35.2899979 148.518497,34.9655012 149.0575,34.7345 C149.596503,34.5034988 150.184997,34.388 150.823,34.388 C151.439003,34.388 152.021997,34.5034988 152.572,34.7345 C153.122003,34.9655012 153.605998,35.2899979 154.024,35.708 C154.442002,36.1260021 154.766499,36.6099973 154.9975,37.16 C155.228501,37.7100028 155.344,38.2929969 155.344,38.909 Z M152.803,38.942 C152.803,38.3699971 152.610502,37.8915019 152.2255,37.5065 C151.840498,37.1214981 151.373003,36.929 150.823,36.929 C150.272997,36.929 149.805502,37.1214981 149.4205,37.5065 C149.035498,37.8915019 148.843,38.3589973 148.843,38.909 C148.843,39.4590028 149.035498,39.9264981 149.4205,40.3115 C149.805502,40.6965019 150.272997,40.889 150.823,40.889 C151.351003,40.889 151.812998,40.6965019 152.209,40.3115 C152.605002,39.9264981 152.803,39.4700026 152.803,38.942 Z" id="path-7"></path>
        <filter x="-2.0%" y="-5.4%" width="105.5%" height="115.1%" filterUnits="objectBoundingBox" id="filter-8">
            <feOffset dx="0.5" dy="0.5" in="SourceAlpha" result="shadowOffsetOuter1"></feOffset>
            <feGaussianBlur stdDeviation="0.5" in="shadowOffsetOuter1" result="shadowBlurOuter1"></feGaussianBlur>
            <feColorMatrix values="0 0 0 0 1   0 0 0 0 1   0 0 0 0 1  0 0 0 1 0" type="matrix" in="shadowBlurOuter1"></feColorMatrix>
        </filter>
    </defs>
    <g id="Globe" stroke="none" stroke-width="1" fill="none" fill-rule="evenodd">
        <g id="iPhone-8" transform="translate(-107.000000, -177.000000)">
            <g id="Shake-up" transform="translate(107.000000, 177.000000)">
                <g id="Let’s">
                    <use fill="black" fill-opacity="1" filter="url(#filter-2)" xlink:href="#path-1"></use>
                    <use fill="#43404F" fill-rule="evenodd" xlink:href="#path-1"></use>
                </g>
                <g id="your-marketing-in">
                    <use fill="black" fill-opacity="1" filter="url(#filter-4)" xlink:href="#path-3"></use>
                    <use fill="#43404F" fill-rule="evenodd" xlink:href="#path-3"></use>
                </g>
                <g id="SHAKE-UP">
                    <use fill="black" fill-opacity="1" filter="url(#filter-6)" xlink:href="#path-5"></use>
                    <use fill="#43404F" fill-rule="evenodd" xlink:href="#path-5"></use>
                </g>
                <g id="2019">
                    <use fill="black" fill-opacity="1" filter="url(#filter-8)" xlink:href="#path-7"></use>
                    <use fill="#43404F" fill-rule="evenodd" xlink:href="#path-7"></use>
                </g>
            </g>
        </g>
    </g>
</svg>